solid T_MESH
 facet normal 0.000000 1.000000 0.000000
  outer loop
   vertex 26.641460 -0.407771 -6.000000
   vertex 26.666531 -0.407771 -5.777479
   vertex 27.641460 -0.407771 -5.000000
  endloop
 endfacet
 facet normal -0.000000 1.000000 0.000000
  outer loop
   vertex 63.000000 -0.407771 -6.000000
   vertex 26.641460 -0.407771 -6.000000
   vertex 27.641460 -0.407771 -5.000000
  endloop
 endfacet
 facet normal 0.000000 1.000000 0.000000
  outer loop
   vertex 63.000000 -0.407771 -39.000000
   vertex 26.641460 -0.407771 -6.000000
   vertex 63.000000 -0.407771 -6.000000
  endloop
 endfacet
 facet normal -0.000000 1.000000 0.000000
  outer loop
   vertex 27.641460 -0.407771 -5.000000
   vertex 26.666531 -0.407771 -5.777479
   vertex 26.740490 -0.407771 -5.566116
  endloop
 endfacet
 facet normal 0.000000 1.000000 -0.000000
  outer loop
   vertex 26.859631 -0.407771 -5.376510
   vertex 27.641460 -0.407771 -5.000000
   vertex 26.740490 -0.407771 -5.566116
  endloop
 endfacet
 facet normal 0.000000 1.000000 -0.000000
  outer loop
   vertex 27.017969 -0.407771 -5.218169
   vertex 27.641460 -0.407771 -5.000000
   vertex 26.859631 -0.407771 -5.376510
  endloop
 endfacet
 facet normal -0.000000 1.000000 0.000000
  outer loop
   vertex 27.641460 -0.407771 -5.000000
   vertex 27.017969 -0.407771 -5.218169
   vertex 27.207569 -0.407771 -5.099031
  endloop
 endfacet
 facet normal 0.000000 1.000000 -0.000000
  outer loop
   vertex 27.418940 -0.407771 -5.025072
   vertex 27.641460 -0.407771 -5.000000
   vertex 27.207569 -0.407771 -5.099031
  endloop
 endfacet
 facet normal 0.000000 1.000000 0.000000
  outer loop
   vertex 63.000000 -0.407771 -6.000000
   vertex 27.641460 -0.407771 -5.000000
   vertex 62.000000 -0.407771 -5.000000
  endloop
 endfacet
 facet normal -0.000000 1.000000 -0.000000
  outer loop
   vertex 62.974930 -0.407771 -5.777479
   vertex 63.000000 -0.407771 -6.000000
   vertex 62.000000 -0.407771 -5.000000
  endloop
 endfacet
 facet normal -0.000000 1.000000 -0.000000
  outer loop
   vertex 62.900970 -0.407771 -5.566116
   vertex 62.974930 -0.407771 -5.777479
   vertex 62.000000 -0.407771 -5.000000
  endloop
 endfacet
 facet normal -0.000000 1.000000 -0.000000
  outer loop
   vertex 62.781830 -0.407771 -5.376510
   vertex 62.900970 -0.407771 -5.566116
   vertex 62.000000 -0.407771 -5.000000
  endloop
 endfacet
 facet normal -0.000000 1.000000 -0.000000
  outer loop
   vertex 62.623489 -0.407771 -5.218169
   vertex 62.781830 -0.407771 -5.376510
   vertex 62.000000 -0.407771 -5.000000
  endloop
 endfacet
 facet normal -0.000000 1.000000 -0.000000
  outer loop
   vertex 62.433880 -0.407771 -5.099031
   vertex 62.623489 -0.407771 -5.218169
   vertex 62.000000 -0.407771 -5.000000
  endloop
 endfacet
 facet normal -0.000000 1.000000 -0.000000
  outer loop
   vertex 62.222519 -0.407771 -5.025072
   vertex 62.433880 -0.407771 -5.099031
   vertex 62.000000 -0.407771 -5.000000
  endloop
 endfacet
 facet normal 0.000000 1.000000 0.000000
  outer loop
   vertex 63.000000 -0.407771 -39.000000
   vertex 62.974930 -0.407771 -39.222519
   vertex 62.000000 -0.407771 -40.000000
  endloop
 endfacet
 facet normal 0.000000 1.000000 -0.000000
  outer loop
   vertex 27.639999 -0.407771 -40.000000
   vertex 63.000000 -0.407771 -39.000000
   vertex 62.000000 -0.407771 -40.000000
  endloop
 endfacet
 facet normal 0.000000 1.000000 -0.000000
  outer loop
   vertex 26.639999 -0.407771 -39.000000
   vertex 63.000000 -0.407771 -39.000000
   vertex 27.639999 -0.407771 -40.000000
  endloop
 endfacet
 facet normal 0.000000 1.000000 0.000000
  outer loop
   vertex 26.665070 -0.407771 -39.222519
   vertex 26.639999 -0.407771 -39.000000
   vertex 27.639999 -0.407771 -40.000000
  endloop
 endfacet
 facet normal 0.000000 1.000000 0.000000
  outer loop
   vertex 26.739031 -0.407771 -39.433880
   vertex 26.665070 -0.407771 -39.222519
   vertex 27.639999 -0.407771 -40.000000
  endloop
 endfacet
 facet normal 0.000000 1.000000 0.000000
  outer loop
   vertex 26.858170 -0.407771 -39.623489
   vertex 26.739031 -0.407771 -39.433880
   vertex 27.639999 -0.407771 -40.000000
  endloop
 endfacet
 facet normal 0.000000 1.000000 0.000000
  outer loop
   vertex 27.016510 -0.407771 -39.781830
   vertex 26.858170 -0.407771 -39.623489
   vertex 27.639999 -0.407771 -40.000000
  endloop
 endfacet
 facet normal 0.000000 1.000000 0.000000
  outer loop
   vertex 27.206120 -0.407771 -39.900970
   vertex 27.016510 -0.407771 -39.781830
   vertex 27.639999 -0.407771 -40.000000
  endloop
 endfacet
 facet normal 0.000000 1.000000 0.000000
  outer loop
   vertex 27.417480 -0.407771 -39.974930
   vertex 27.206120 -0.407771 -39.900970
   vertex 27.639999 -0.407771 -40.000000
  endloop
 endfacet
 facet normal 0.000000 1.000000 -0.000000
  outer loop
   vertex 62.000000 -0.407771 -40.000000
   vertex 62.974930 -0.407771 -39.222519
   vertex 62.900970 -0.407771 -39.433880
  endloop
 endfacet
 facet normal -0.000000 1.000000 0.000000
  outer loop
   vertex 62.781830 -0.407771 -39.623489
   vertex 62.000000 -0.407771 -40.000000
   vertex 62.900970 -0.407771 -39.433880
  endloop
 endfacet
 facet normal -0.000000 1.000000 0.000000
  outer loop
   vertex 62.623489 -0.407771 -39.781830
   vertex 62.000000 -0.407771 -40.000000
   vertex 62.781830 -0.407771 -39.623489
  endloop
 endfacet
 facet normal 0.000000 1.000000 -0.000000
  outer loop
   vertex 62.000000 -0.407771 -40.000000
   vertex 62.623489 -0.407771 -39.781830
   vertex 62.433880 -0.407771 -39.900970
  endloop
 endfacet
 facet normal -0.000000 1.000000 0.000000
  outer loop
   vertex 62.222519 -0.407771 -39.974930
   vertex 62.000000 -0.407771 -40.000000
   vertex 62.433880 -0.407771 -39.900970
  endloop
 endfacet
 facet normal 0.000000 1.000000 0.000000
  outer loop
   vertex 26.639999 -0.407771 -39.000000
   vertex 26.639999 -0.407771 -5.999860
   vertex 26.641460 -0.407771 -6.000000
  endloop
 endfacet
 facet normal -0.000000 1.000000 0.000000
  outer loop
   vertex 63.000000 -0.407771 -39.000000
   vertex 26.639999 -0.407771 -39.000000
   vertex 26.641460 -0.407771 -6.000000
  endloop
 endfacet
 facet normal 1.000000 0.000000 -0.000000
  outer loop
   vertex 63.000000 -1.407771 -19.000000
   vertex 63.000000 -1.407771 -39.000000
   vertex 63.000000 -0.407771 -39.000000
  endloop
 endfacet
 facet normal 1.000000 0.000000 -0.000000
  outer loop
   vertex 63.000000 -0.407771 -6.000000
   vertex 63.000000 -1.407771 -19.000000
   vertex 63.000000 -0.407771 -39.000000
  endloop
 endfacet
 facet normal 1.000000 0.000000 0.000000
  outer loop
   vertex 63.000000 -14.407770 -6.000000
   vertex 63.000000 -1.407771 -19.000000
   vertex 63.000000 -0.407771 -6.000000
  endloop
 endfacet
 facet normal 1.000000 -0.000000 0.000000
  outer loop
   vertex 63.000000 -1.407771 -19.000000
   vertex 63.000000 -14.407770 -6.000000
   vertex 63.000000 -14.407770 -19.000000
  endloop
 endfacet
 facet normal 0.993713 -0.001045 0.111956
  outer loop
   vertex 63.000000 -0.407771 -6.000000
   vertex 62.974930 -0.407771 -5.777479
   vertex 62.965931 -5.074437 -5.741181
  endloop
 endfacet
 facet normal 0.991447 0.000000 0.130507
  outer loop
   vertex 62.965931 -9.741104 -5.741181
   vertex 63.000000 -0.407771 -6.000000
   vertex 62.965931 -5.074437 -5.741181
  endloop
 endfacet
 facet normal 0.987883 0.000698 0.155201
  outer loop
   vertex 62.974930 -14.407770 -5.777479
   vertex 63.000000 -0.407771 -6.000000
   vertex 62.965931 -9.741104 -5.741181
  endloop
 endfacet
 facet normal 0.943883 -0.000749 0.330279
  outer loop
   vertex 62.900970 -14.407770 -5.566116
   vertex 62.974930 -14.407770 -5.777479
   vertex 62.965931 -9.741104 -5.741181
  endloop
 endfacet
 facet normal 0.923880 0.001495 0.382679
  outer loop
   vertex 62.866032 -9.741104 -5.500000
   vertex 62.900970 -14.407770 -5.566116
   vertex 62.965931 -9.741104 -5.741181
  endloop
 endfacet
 facet normal 0.846717 -0.001199 0.532043
  outer loop
   vertex 62.781830 -14.407770 -5.376510
   vertex 62.900970 -14.407770 -5.566116
   vertex 62.866032 -9.741104 -5.500000
  endloop
 endfacet
 facet normal 0.793349 0.001795 0.608764
  outer loop
   vertex 62.707111 -9.741104 -5.292893
   vertex 62.781830 -14.407770 -5.376510
   vertex 62.866032 -9.741104 -5.500000
  endloop
 endfacet
 facet normal 0.707107 -0.001348 0.707105
  outer loop
   vertex 62.623489 -14.407770 -5.218169
   vertex 62.781830 -14.407770 -5.376510
   vertex 62.707111 -9.741104 -5.292893
  endloop
 endfacet
 facet normal 0.608750 0.001795 0.793360
  outer loop
   vertex 62.500000 -9.741104 -5.133975
   vertex 62.623489 -14.407770 -5.218169
   vertex 62.707111 -9.741104 -5.292893
  endloop
 endfacet
 facet normal 0.532027 -0.001198 0.846726
  outer loop
   vertex 62.433880 -14.407770 -5.099031
   vertex 62.623489 -14.407770 -5.218169
   vertex 62.500000 -9.741104 -5.133975
  endloop
 endfacet
 facet normal 0.382686 0.001496 0.923877
  outer loop
   vertex 62.258820 -9.741104 -5.034074
   vertex 62.433880 -14.407770 -5.099031
   vertex 62.500000 -9.741104 -5.133975
  endloop
 endfacet
 facet normal 0.330281 -0.000748 0.943882
  outer loop
   vertex 62.222519 -14.407770 -5.025072
   vertex 62.433880 -14.407770 -5.099031
   vertex 62.258820 -9.741104 -5.034074
  endloop
 endfacet
 facet normal 0.111965 0.001046 0.993712
  outer loop
   vertex 62.000000 -14.407770 -5.000000
   vertex 62.222519 -14.407770 -5.025072
   vertex 62.258820 -9.741104 -5.034074
  endloop
 endfacet
 facet normal 0.130525 0.000000 0.991445
  outer loop
   vertex 62.258820 -5.074437 -5.034074
   vertex 62.000000 -14.407770 -5.000000
   vertex 62.258820 -9.741104 -5.034074
  endloop
 endfacet
 facet normal 0.155229 -0.000698 0.987878
  outer loop
   vertex 62.222519 -0.407771 -5.025072
   vertex 62.000000 -14.407770 -5.000000
   vertex 62.258820 -5.074437 -5.034074
  endloop
 endfacet
 facet normal 0.330281 0.000748 0.943882
  outer loop
   vertex 62.433880 -0.407771 -5.099031
   vertex 62.222519 -0.407771 -5.025072
   vertex 62.258820 -5.074437 -5.034074
  endloop
 endfacet
 facet normal 0.382686 -0.001496 0.923877
  outer loop
   vertex 62.500000 -5.074437 -5.133975
   vertex 62.433880 -0.407771 -5.099031
   vertex 62.258820 -5.074437 -5.034074
  endloop
 endfacet
 facet normal 0.532027 0.001198 0.846726
  outer loop
   vertex 62.623489 -0.407771 -5.218169
   vertex 62.433880 -0.407771 -5.099031
   vertex 62.500000 -5.074437 -5.133975
  endloop
 endfacet
 facet normal 0.608750 -0.001795 0.793360
  outer loop
   vertex 62.707111 -5.074437 -5.292893
   vertex 62.623489 -0.407771 -5.218169
   vertex 62.500000 -5.074437 -5.133975
  endloop
 endfacet
 facet normal 0.707107 0.001348 0.707105
  outer loop
   vertex 62.781830 -0.407771 -5.376510
   vertex 62.623489 -0.407771 -5.218169
   vertex 62.707111 -5.074437 -5.292893
  endloop
 endfacet
 facet normal 0.793349 -0.001795 0.608764
  outer loop
   vertex 62.866032 -5.074437 -5.500000
   vertex 62.781830 -0.407771 -5.376510
   vertex 62.707111 -5.074437 -5.292893
  endloop
 endfacet
 facet normal 0.846717 0.001199 0.532043
  outer loop
   vertex 62.900970 -0.407771 -5.566116
   vertex 62.781830 -0.407771 -5.376510
   vertex 62.866032 -5.074437 -5.500000
  endloop
 endfacet
 facet normal 0.923880 -0.001495 0.382679
  outer loop
   vertex 62.965931 -5.074437 -5.741181
   vertex 62.900970 -0.407771 -5.566116
   vertex 62.866032 -5.074437 -5.500000
  endloop
 endfacet
 facet normal 0.943883 0.000749 0.330279
  outer loop
   vertex 62.974930 -0.407771 -5.777479
   vertex 62.900970 -0.407771 -5.566116
   vertex 62.965931 -5.074437 -5.741181
  endloop
 endfacet
 facet normal 0.111966 0.000000 0.993712
  outer loop
   vertex 62.000000 -14.407770 -5.000000
   vertex 62.222519 -0.407771 -5.025072
   vertex 62.000000 -0.407771 -5.000000
  endloop
 endfacet
 facet normal 0.993713 0.000000 0.111956
  outer loop
   vertex 63.000000 -0.407771 -6.000000
   vertex 62.974930 -14.407770 -5.777479
   vertex 63.000000 -14.407770 -6.000000
  endloop
 endfacet
 facet normal 0.923881 0.000000 0.382680
  outer loop
   vertex 62.965931 -5.074437 -5.741181
   vertex 62.866032 -9.741104 -5.500000
   vertex 62.965931 -9.741104 -5.741181
  endloop
 endfacet
 facet normal 0.793351 0.000000 0.608765
  outer loop
   vertex 62.866032 -5.074437 -5.500000
   vertex 62.707111 -9.741104 -5.292893
   vertex 62.866032 -9.741104 -5.500000
  endloop
 endfacet
 facet normal 0.923881 -0.000000 0.382680
  outer loop
   vertex 62.965931 -5.074437 -5.741181
   vertex 62.866032 -5.074437 -5.500000
   vertex 62.866032 -9.741104 -5.500000
  endloop
 endfacet
 facet normal 0.608751 0.000000 0.793361
  outer loop
   vertex 62.707111 -5.074437 -5.292893
   vertex 62.500000 -9.741104 -5.133975
   vertex 62.707111 -9.741104 -5.292893
  endloop
 endfacet
 facet normal 0.793351 -0.000000 0.608765
  outer loop
   vertex 62.866032 -5.074437 -5.500000
   vertex 62.707111 -5.074437 -5.292893
   vertex 62.707111 -9.741104 -5.292893
  endloop
 endfacet
 facet normal 0.382687 0.000000 0.923878
  outer loop
   vertex 62.500000 -5.074437 -5.133975
   vertex 62.258820 -9.741104 -5.034074
   vertex 62.500000 -9.741104 -5.133975
  endloop
 endfacet
 facet normal 0.608751 -0.000000 0.793361
  outer loop
   vertex 62.707111 -5.074437 -5.292893
   vertex 62.500000 -5.074437 -5.133975
   vertex 62.500000 -9.741104 -5.133975
  endloop
 endfacet
 facet normal 0.382687 -0.000000 0.923878
  outer loop
   vertex 62.500000 -5.074437 -5.133975
   vertex 62.258820 -5.074437 -5.034074
   vertex 62.258820 -9.741104 -5.034074
  endloop
 endfacet
 facet normal 0.000000 -0.000000 1.000000
  outer loop
   vertex 31.192499 -7.507771 -5.000000
   vertex 31.175461 -7.637180 -5.000000
   vertex 33.200001 -14.407770 -5.000000
  endloop
 endfacet
 facet normal 0.000000 -0.000000 1.000000
  outer loop
   vertex 33.200001 -1.407771 -5.000000
   vertex 31.192499 -7.507771 -5.000000
   vertex 33.200001 -14.407770 -5.000000
  endloop
 endfacet
 facet normal 0.000000 0.000000 1.000000
  outer loop
   vertex 31.175461 -7.378361 -5.000000
   vertex 31.192499 -7.507771 -5.000000
   vertex 33.200001 -1.407771 -5.000000
  endloop
 endfacet
 facet normal 0.000000 0.000000 1.000000
  outer loop
   vertex 31.125509 -7.257771 -5.000000
   vertex 31.175461 -7.378361 -5.000000
   vertex 33.200001 -1.407771 -5.000000
  endloop
 endfacet
 facet normal 0.000000 0.000000 1.000000
  outer loop
   vertex 31.046049 -7.154217 -5.000000
   vertex 31.125509 -7.257771 -5.000000
   vertex 33.200001 -1.407771 -5.000000
  endloop
 endfacet
 facet normal 0.000000 0.000000 1.000000
  outer loop
   vertex 30.942499 -7.074758 -5.000000
   vertex 31.046049 -7.154217 -5.000000
   vertex 33.200001 -1.407771 -5.000000
  endloop
 endfacet
 facet normal 0.000000 0.000000 1.000000
  outer loop
   vertex 30.821911 -7.024808 -5.000000
   vertex 30.942499 -7.074758 -5.000000
   vertex 33.200001 -1.407771 -5.000000
  endloop
 endfacet
 facet normal 0.000000 0.000000 1.000000
  outer loop
   vertex 30.692499 -7.007771 -5.000000
   vertex 30.821911 -7.024808 -5.000000
   vertex 33.200001 -1.407771 -5.000000
  endloop
 endfacet
 facet normal 0.000000 0.000000 1.000000
  outer loop
   vertex 30.563089 -7.024808 -5.000000
   vertex 30.692499 -7.007771 -5.000000
   vertex 33.200001 -1.407771 -5.000000
  endloop
 endfacet
 facet normal 0.000000 0.000000 1.000000
  outer loop
   vertex 27.641460 -0.407771 -5.000000
   vertex 30.563089 -7.024808 -5.000000
   vertex 33.200001 -1.407771 -5.000000
  endloop
 endfacet
 facet normal 0.000000 0.000000 1.000000
  outer loop
   vertex 30.442499 -7.074758 -5.000000
   vertex 30.563089 -7.024808 -5.000000
   vertex 27.641460 -0.407771 -5.000000
  endloop
 endfacet
 facet normal 0.000000 0.000000 1.000000
  outer loop
   vertex 30.338940 -7.154217 -5.000000
   vertex 30.442499 -7.074758 -5.000000
   vertex 27.641460 -0.407771 -5.000000
  endloop
 endfacet
 facet normal 0.000000 0.000000 1.000000
  outer loop
   vertex 30.259480 -7.257771 -5.000000
   vertex 30.338940 -7.154217 -5.000000
   vertex 27.641460 -0.407771 -5.000000
  endloop
 endfacet
 facet normal 0.000000 0.000000 1.000000
  outer loop
   vertex 30.209530 -7.378361 -5.000000
   vertex 30.259480 -7.257771 -5.000000
   vertex 27.641460 -0.407771 -5.000000
  endloop
 endfacet
 facet normal 0.000000 0.000000 1.000000
  outer loop
   vertex 30.192499 -7.507771 -5.000000
   vertex 30.209530 -7.378361 -5.000000
   vertex 27.641460 -0.407771 -5.000000
  endloop
 endfacet
 facet normal 0.000000 0.000000 1.000000
  outer loop
   vertex 27.641460 -14.407770 -5.000000
   vertex 30.192499 -7.507771 -5.000000
   vertex 27.641460 -0.407771 -5.000000
  endloop
 endfacet
 facet normal -0.000000 0.000000 1.000000
  outer loop
   vertex 30.209530 -7.637180 -5.000000
   vertex 30.192499 -7.507771 -5.000000
   vertex 27.641460 -14.407770 -5.000000
  endloop
 endfacet
 facet normal -0.000000 0.000000 1.000000
  outer loop
   vertex 30.259480 -7.757771 -5.000000
   vertex 30.209530 -7.637180 -5.000000
   vertex 27.641460 -14.407770 -5.000000
  endloop
 endfacet
 facet normal -0.000000 0.000000 1.000000
  outer loop
   vertex 30.338940 -7.861324 -5.000000
   vertex 30.259480 -7.757771 -5.000000
   vertex 27.641460 -14.407770 -5.000000
  endloop
 endfacet
 facet normal -0.000000 0.000000 1.000000
  outer loop
   vertex 30.442499 -7.940783 -5.000000
   vertex 30.338940 -7.861324 -5.000000
   vertex 27.641460 -14.407770 -5.000000
  endloop
 endfacet
 facet normal -0.000000 0.000000 1.000000
  outer loop
   vertex 30.563089 -7.990734 -5.000000
   vertex 30.442499 -7.940783 -5.000000
   vertex 27.641460 -14.407770 -5.000000
  endloop
 endfacet
 facet normal -0.000000 0.000000 1.000000
  outer loop
   vertex 30.692499 -8.007771 -5.000000
   vertex 30.563089 -7.990734 -5.000000
   vertex 27.641460 -14.407770 -5.000000
  endloop
 endfacet
 facet normal -0.000000 0.000000 1.000000
  outer loop
   vertex 33.200001 -14.407770 -5.000000
   vertex 30.692499 -8.007771 -5.000000
   vertex 27.641460 -14.407770 -5.000000
  endloop
 endfacet
 facet normal 0.000000 -0.000000 1.000000
  outer loop
   vertex 30.821911 -7.990734 -5.000000
   vertex 30.692499 -8.007771 -5.000000
   vertex 33.200001 -14.407770 -5.000000
  endloop
 endfacet
 facet normal 0.000000 -0.000000 1.000000
  outer loop
   vertex 30.942499 -7.940783 -5.000000
   vertex 30.821911 -7.990734 -5.000000
   vertex 33.200001 -14.407770 -5.000000
  endloop
 endfacet
 facet normal 0.000000 -0.000000 1.000000
  outer loop
   vertex 31.046049 -7.861324 -5.000000
   vertex 30.942499 -7.940783 -5.000000
   vertex 33.200001 -14.407770 -5.000000
  endloop
 endfacet
 facet normal 0.000000 -0.000000 1.000000
  outer loop
   vertex 31.125509 -7.757771 -5.000000
   vertex 31.046049 -7.861324 -5.000000
   vertex 33.200001 -14.407770 -5.000000
  endloop
 endfacet
 facet normal 0.000000 -0.000000 1.000000
  outer loop
   vertex 31.175461 -7.637180 -5.000000
   vertex 31.125509 -7.757771 -5.000000
   vertex 33.200001 -14.407770 -5.000000
  endloop
 endfacet
 facet normal 0.000000 -0.000000 1.000000
  outer loop
   vertex 58.992500 -7.507771 -5.000000
   vertex 58.975460 -7.637180 -5.000000
   vertex 62.000000 -14.407770 -5.000000
  endloop
 endfacet
 facet normal 0.000000 -0.000000 1.000000
  outer loop
   vertex 62.000000 -0.407771 -5.000000
   vertex 58.992500 -7.507771 -5.000000
   vertex 62.000000 -14.407770 -5.000000
  endloop
 endfacet
 facet normal 0.000000 0.000000 1.000000
  outer loop
   vertex 58.975460 -7.378361 -5.000000
   vertex 58.992500 -7.507771 -5.000000
   vertex 62.000000 -0.407771 -5.000000
  endloop
 endfacet
 facet normal 0.000000 0.000000 1.000000
  outer loop
   vertex 58.925510 -7.257771 -5.000000
   vertex 58.975460 -7.378361 -5.000000
   vertex 62.000000 -0.407771 -5.000000
  endloop
 endfacet
 facet normal 0.000000 0.000000 1.000000
  outer loop
   vertex 58.846050 -7.154217 -5.000000
   vertex 58.925510 -7.257771 -5.000000
   vertex 62.000000 -0.407771 -5.000000
  endloop
 endfacet
 facet normal 0.000000 0.000000 1.000000
  outer loop
   vertex 58.742500 -7.074758 -5.000000
   vertex 58.846050 -7.154217 -5.000000
   vertex 62.000000 -0.407771 -5.000000
  endloop
 endfacet
 facet normal 0.000000 0.000000 1.000000
  outer loop
   vertex 58.621910 -7.024808 -5.000000
   vertex 58.742500 -7.074758 -5.000000
   vertex 62.000000 -0.407771 -5.000000
  endloop
 endfacet
 facet normal 0.000000 0.000000 1.000000
  outer loop
   vertex 56.000000 -1.407771 -5.000000
   vertex 58.621910 -7.024808 -5.000000
   vertex 62.000000 -0.407771 -5.000000
  endloop
 endfacet
 facet normal 0.000000 0.000000 1.000000
  outer loop
   vertex 58.492500 -7.007771 -5.000000
   vertex 58.621910 -7.024808 -5.000000
   vertex 56.000000 -1.407771 -5.000000
  endloop
 endfacet
 facet normal 0.000000 0.000000 1.000000
  outer loop
   vertex 58.363091 -7.024808 -5.000000
   vertex 58.492500 -7.007771 -5.000000
   vertex 56.000000 -1.407771 -5.000000
  endloop
 endfacet
 facet normal 0.000000 0.000000 1.000000
  outer loop
   vertex 58.242500 -7.074758 -5.000000
   vertex 58.363091 -7.024808 -5.000000
   vertex 56.000000 -1.407771 -5.000000
  endloop
 endfacet
 facet normal 0.000000 0.000000 1.000000
  outer loop
   vertex 58.138939 -7.154217 -5.000000
   vertex 58.242500 -7.074758 -5.000000
   vertex 56.000000 -1.407771 -5.000000
  endloop
 endfacet
 facet normal 0.000000 0.000000 1.000000
  outer loop
   vertex 58.059479 -7.257771 -5.000000
   vertex 58.138939 -7.154217 -5.000000
   vertex 56.000000 -1.407771 -5.000000
  endloop
 endfacet
 facet normal 0.000000 0.000000 1.000000
  outer loop
   vertex 58.009529 -7.378361 -5.000000
   vertex 58.059479 -7.257771 -5.000000
   vertex 56.000000 -1.407771 -5.000000
  endloop
 endfacet
 facet normal 0.000000 0.000000 1.000000
  outer loop
   vertex 57.992500 -7.507771 -5.000000
   vertex 58.009529 -7.378361 -5.000000
   vertex 56.000000 -1.407771 -5.000000
  endloop
 endfacet
 facet normal 0.000000 0.000000 1.000000
  outer loop
   vertex 56.000000 -14.407770 -5.000000
   vertex 57.992500 -7.507771 -5.000000
   vertex 56.000000 -1.407771 -5.000000
  endloop
 endfacet
 facet normal -0.000000 0.000000 1.000000
  outer loop
   vertex 58.009529 -7.637180 -5.000000
   vertex 57.992500 -7.507771 -5.000000
   vertex 56.000000 -14.407770 -5.000000
  endloop
 endfacet
 facet normal -0.000000 0.000000 1.000000
  outer loop
   vertex 58.059479 -7.757771 -5.000000
   vertex 58.009529 -7.637180 -5.000000
   vertex 56.000000 -14.407770 -5.000000
  endloop
 endfacet
 facet normal -0.000000 0.000000 1.000000
  outer loop
   vertex 58.138939 -7.861324 -5.000000
   vertex 58.059479 -7.757771 -5.000000
   vertex 56.000000 -14.407770 -5.000000
  endloop
 endfacet
 facet normal -0.000000 0.000000 1.000000
  outer loop
   vertex 58.242500 -7.940783 -5.000000
   vertex 58.138939 -7.861324 -5.000000
   vertex 56.000000 -14.407770 -5.000000
  endloop
 endfacet
 facet normal -0.000000 0.000000 1.000000
  outer loop
   vertex 58.363091 -7.990734 -5.000000
   vertex 58.242500 -7.940783 -5.000000
   vertex 56.000000 -14.407770 -5.000000
  endloop
 endfacet
 facet normal -0.000000 0.000000 1.000000
  outer loop
   vertex 58.492500 -8.007771 -5.000000
   vertex 58.363091 -7.990734 -5.000000
   vertex 56.000000 -14.407770 -5.000000
  endloop
 endfacet
 facet normal -0.000000 0.000000 1.000000
  outer loop
   vertex 62.000000 -14.407770 -5.000000
   vertex 58.492500 -8.007771 -5.000000
   vertex 56.000000 -14.407770 -5.000000
  endloop
 endfacet
 facet normal 0.000000 -0.000000 1.000000
  outer loop
   vertex 58.621910 -7.990734 -5.000000
   vertex 58.492500 -8.007771 -5.000000
   vertex 62.000000 -14.407770 -5.000000
  endloop
 endfacet
 facet normal 0.000000 -0.000000 1.000000
  outer loop
   vertex 58.742500 -7.940783 -5.000000
   vertex 58.621910 -7.990734 -5.000000
   vertex 62.000000 -14.407770 -5.000000
  endloop
 endfacet
 facet normal 0.000000 -0.000000 1.000000
  outer loop
   vertex 58.846050 -7.861324 -5.000000
   vertex 58.742500 -7.940783 -5.000000
   vertex 62.000000 -14.407770 -5.000000
  endloop
 endfacet
 facet normal 0.000000 -0.000000 1.000000
  outer loop
   vertex 58.925510 -7.757771 -5.000000
   vertex 58.846050 -7.861324 -5.000000
   vertex 62.000000 -14.407770 -5.000000
  endloop
 endfacet
 facet normal 0.000000 -0.000000 1.000000
  outer loop
   vertex 58.975460 -7.637180 -5.000000
   vertex 58.925510 -7.757771 -5.000000
   vertex 62.000000 -14.407770 -5.000000
  endloop
 endfacet
 facet normal -0.000000 0.000000 1.000000
  outer loop
   vertex 56.000000 -1.407771 -5.000000
   vertex 62.000000 -0.407771 -5.000000
   vertex 27.641460 -0.407771 -5.000000
  endloop
 endfacet
 facet normal 0.000000 0.000000 1.000000
  outer loop
   vertex 33.200001 -1.407771 -5.000000
   vertex 56.000000 -1.407771 -5.000000
   vertex 27.641460 -0.407771 -5.000000
  endloop
 endfacet
 facet normal -0.111965 -0.001046 0.993712
  outer loop
   vertex 27.641460 -0.407771 -5.000000
   vertex 27.418940 -0.407771 -5.025072
   vertex 27.382641 -5.074437 -5.034074
  endloop
 endfacet
 facet normal -0.130525 0.000000 0.991445
  outer loop
   vertex 27.382641 -9.741104 -5.034074
   vertex 27.641460 -0.407771 -5.000000
   vertex 27.382641 -5.074437 -5.034074
  endloop
 endfacet
 facet normal -0.155230 0.000698 0.987878
  outer loop
   vertex 27.418940 -14.407770 -5.025072
   vertex 27.641460 -0.407771 -5.000000
   vertex 27.382641 -9.741104 -5.034074
  endloop
 endfacet
 facet normal -0.330268 -0.000748 0.943887
  outer loop
   vertex 27.207569 -14.407770 -5.099031
   vertex 27.418940 -14.407770 -5.025072
   vertex 27.382641 -9.741104 -5.034074
  endloop
 endfacet
 facet normal -0.382686 0.001497 0.923877
  outer loop
   vertex 27.141460 -9.741104 -5.133975
   vertex 27.207569 -14.407770 -5.099031
   vertex 27.382641 -9.741104 -5.034074
  endloop
 endfacet
 facet normal -0.532047 -0.001197 0.846714
  outer loop
   vertex 27.017969 -14.407770 -5.218169
   vertex 27.207569 -14.407770 -5.099031
   vertex 27.141460 -9.741104 -5.133975
  endloop
 endfacet
 facet normal -0.608750 0.001796 0.793360
  outer loop
   vertex 26.934349 -9.741104 -5.292893
   vertex 27.017969 -14.407770 -5.218169
   vertex 27.141460 -9.741104 -5.133975
  endloop
 endfacet
 facet normal -0.707111 -0.001348 0.707101
  outer loop
   vertex 26.859631 -14.407770 -5.376510
   vertex 27.017969 -14.407770 -5.218169
   vertex 26.934349 -9.741104 -5.292893
  endloop
 endfacet
 facet normal -0.793353 0.001795 0.608759
  outer loop
   vertex 26.775431 -9.741104 -5.500000
   vertex 26.859631 -14.407770 -5.376510
   vertex 26.934349 -9.741104 -5.292893
  endloop
 endfacet
 facet normal -0.846717 -0.001198 0.532043
  outer loop
   vertex 26.740490 -14.407770 -5.566116
   vertex 26.859631 -14.407770 -5.376510
   vertex 26.775431 -9.741104 -5.500000
  endloop
 endfacet
 facet normal -0.923877 0.001496 0.382686
  outer loop
   vertex 26.675529 -9.741104 -5.741181
   vertex 26.740490 -14.407770 -5.566116
   vertex 26.775431 -9.741104 -5.500000
  endloop
 endfacet
 facet normal -0.943883 -0.000749 0.330279
  outer loop
   vertex 26.666531 -14.407770 -5.777479
   vertex 26.740490 -14.407770 -5.566116
   vertex 26.675529 -9.741104 -5.741181
  endloop
 endfacet
 facet normal -0.993713 0.001045 0.111956
  outer loop
   vertex 26.641460 -14.407770 -6.000000
   vertex 26.666531 -14.407770 -5.777479
   vertex 26.675529 -9.741104 -5.741181
  endloop
 endfacet
 facet normal -0.991447 0.000000 0.130507
  outer loop
   vertex 26.675529 -5.074437 -5.741181
   vertex 26.641460 -14.407770 -6.000000
   vertex 26.675529 -9.741104 -5.741181
  endloop
 endfacet
 facet normal -0.987883 -0.000698 0.155201
  outer loop
   vertex 26.666531 -0.407771 -5.777479
   vertex 26.641460 -14.407770 -6.000000
   vertex 26.675529 -5.074437 -5.741181
  endloop
 endfacet
 facet normal -0.943883 0.000749 0.330279
  outer loop
   vertex 26.740490 -0.407771 -5.566116
   vertex 26.666531 -0.407771 -5.777479
   vertex 26.675529 -5.074437 -5.741181
  endloop
 endfacet
 facet normal -0.923877 -0.001496 0.382686
  outer loop
   vertex 26.775431 -5.074437 -5.500000
   vertex 26.740490 -0.407771 -5.566116
   vertex 26.675529 -5.074437 -5.741181
  endloop
 endfacet
 facet normal -0.846717 0.001198 0.532043
  outer loop
   vertex 26.859631 -0.407771 -5.376510
   vertex 26.740490 -0.407771 -5.566116
   vertex 26.775431 -5.074437 -5.500000
  endloop
 endfacet
 facet normal -0.793353 -0.001795 0.608759
  outer loop
   vertex 26.934349 -5.074437 -5.292893
   vertex 26.859631 -0.407771 -5.376510
   vertex 26.775431 -5.074437 -5.500000
  endloop
 endfacet
 facet normal -0.707111 0.001348 0.707101
  outer loop
   vertex 27.017969 -0.407771 -5.218169
   vertex 26.859631 -0.407771 -5.376510
   vertex 26.934349 -5.074437 -5.292893
  endloop
 endfacet
 facet normal -0.608750 -0.001796 0.793360
  outer loop
   vertex 27.141460 -5.074437 -5.133975
   vertex 27.017969 -0.407771 -5.218169
   vertex 26.934349 -5.074437 -5.292893
  endloop
 endfacet
 facet normal -0.532047 0.001197 0.846714
  outer loop
   vertex 27.207569 -0.407771 -5.099031
   vertex 27.017969 -0.407771 -5.218169
   vertex 27.141460 -5.074437 -5.133975
  endloop
 endfacet
 facet normal -0.382686 -0.001497 0.923877
  outer loop
   vertex 27.382641 -5.074437 -5.034074
   vertex 27.207569 -0.407771 -5.099031
   vertex 27.141460 -5.074437 -5.133975
  endloop
 endfacet
 facet normal -0.330268 0.000748 0.943887
  outer loop
   vertex 27.418940 -0.407771 -5.025072
   vertex 27.207569 -0.407771 -5.099031
   vertex 27.382641 -5.074437 -5.034074
  endloop
 endfacet
 facet normal -0.993713 0.000000 0.111956
  outer loop
   vertex 26.666531 -0.407771 -5.777479
   vertex 26.641460 -0.407771 -6.000000
   vertex 26.641460 -1.407771 -6.000000
  endloop
 endfacet
 facet normal -0.993713 0.000000 0.111956
  outer loop
   vertex 26.641460 -14.407770 -6.000000
   vertex 26.666531 -0.407771 -5.777479
   vertex 26.641460 -1.407771 -6.000000
  endloop
 endfacet
 facet normal -0.111965 0.000000 0.993712
  outer loop
   vertex 27.641460 -0.407771 -5.000000
   vertex 27.418940 -14.407770 -5.025072
   vertex 27.641460 -14.407770 -5.000000
  endloop
 endfacet
 facet normal -0.382687 0.000000 0.923878
  outer loop
   vertex 27.382641 -5.074437 -5.034074
   vertex 27.141460 -9.741104 -5.133975
   vertex 27.382641 -9.741104 -5.034074
  endloop
 endfacet
 facet normal -0.608751 0.000000 0.793361
  outer loop
   vertex 27.141460 -5.074437 -5.133975
   vertex 26.934349 -9.741104 -5.292893
   vertex 27.141460 -9.741104 -5.133975
  endloop
 endfacet
 facet normal -0.382687 0.000000 0.923878
  outer loop
   vertex 27.382641 -5.074437 -5.034074
   vertex 27.141460 -5.074437 -5.133975
   vertex 27.141460 -9.741104 -5.133975
  endloop
 endfacet
 facet normal -0.793354 0.000000 0.608760
  outer loop
   vertex 26.934349 -5.074437 -5.292893
   vertex 26.775431 -9.741104 -5.500000
   vertex 26.934349 -9.741104 -5.292893
  endloop
 endfacet
 facet normal -0.608751 0.000000 0.793361
  outer loop
   vertex 27.141460 -5.074437 -5.133975
   vertex 26.934349 -5.074437 -5.292893
   vertex 26.934349 -9.741104 -5.292893
  endloop
 endfacet
 facet normal -0.923878 0.000000 0.382686
  outer loop
   vertex 26.775431 -5.074437 -5.500000
   vertex 26.675529 -9.741104 -5.741181
   vertex 26.775431 -9.741104 -5.500000
  endloop
 endfacet
 facet normal -0.793354 0.000000 0.608760
  outer loop
   vertex 26.934349 -5.074437 -5.292893
   vertex 26.775431 -5.074437 -5.500000
   vertex 26.775431 -9.741104 -5.500000
  endloop
 endfacet
 facet normal -0.923878 0.000000 0.382686
  outer loop
   vertex 26.775431 -5.074437 -5.500000
   vertex 26.675529 -5.074437 -5.741181
   vertex 26.675529 -9.741104 -5.741181
  endloop
 endfacet
 facet normal 0.095514 0.000000 0.995428
  outer loop
   vertex 26.641460 -1.407771 -6.000000
   vertex 26.641460 -0.407771 -6.000000
   vertex 26.639999 -0.407771 -5.999860
  endloop
 endfacet
 facet normal 0.095514 0.000000 0.995428
  outer loop
   vertex 26.639999 -1.407771 -5.999860
   vertex 26.641460 -1.407771 -6.000000
   vertex 26.639999 -0.407771 -5.999860
  endloop
 endfacet
 facet normal 0.000000 -1.000000 0.000000
  outer loop
   vertex 26.641460 -1.407771 -19.000000
   vertex 26.641460 -1.407771 -6.000000
   vertex 26.639999 -1.407771 -5.999860
  endloop
 endfacet
 facet normal 0.000000 -1.000000 -0.000000
  outer loop
   vertex 26.639999 -1.407771 -39.000000
   vertex 26.641460 -1.407771 -19.000000
   vertex 26.639999 -1.407771 -5.999860
  endloop
 endfacet
 facet normal 0.000000 -1.000000 0.000000
  outer loop
   vertex 28.000000 -1.407771 -19.000000
   vertex 26.641460 -1.407771 -19.000000
   vertex 26.639999 -1.407771 -39.000000
  endloop
 endfacet
 facet normal 0.000000 -1.000000 -0.000000
  outer loop
   vertex 27.639999 -1.407771 -40.000000
   vertex 28.000000 -1.407771 -19.000000
   vertex 26.639999 -1.407771 -39.000000
  endloop
 endfacet
 facet normal 0.000000 -1.000000 0.000000
  outer loop
   vertex 61.000000 -1.407771 -19.000000
   vertex 28.000000 -1.407771 -19.000000
   vertex 27.639999 -1.407771 -40.000000
  endloop
 endfacet
 facet normal 0.000000 -1.000000 0.000000
  outer loop
   vertex 62.000000 -1.407771 -40.000000
   vertex 61.000000 -1.407771 -19.000000
   vertex 27.639999 -1.407771 -40.000000
  endloop
 endfacet
 facet normal 0.000000 -1.000000 0.000000
  outer loop
   vertex 63.000000 -1.407771 -39.000000
   vertex 61.000000 -1.407771 -19.000000
   vertex 62.000000 -1.407771 -40.000000
  endloop
 endfacet
 facet normal 0.000000 -1.000000 -0.000000
  outer loop
   vertex 62.974930 -1.407771 -39.222519
   vertex 63.000000 -1.407771 -39.000000
   vertex 62.000000 -1.407771 -40.000000
  endloop
 endfacet
 facet normal 0.000000 -1.000000 -0.000000
  outer loop
   vertex 62.900970 -1.407771 -39.433880
   vertex 62.974930 -1.407771 -39.222519
   vertex 62.000000 -1.407771 -40.000000
  endloop
 endfacet
 facet normal 0.000000 -1.000000 -0.000000
  outer loop
   vertex 62.781830 -1.407771 -39.623489
   vertex 62.900970 -1.407771 -39.433880
   vertex 62.000000 -1.407771 -40.000000
  endloop
 endfacet
 facet normal 0.000000 -1.000000 -0.000000
  outer loop
   vertex 62.623489 -1.407771 -39.781830
   vertex 62.781830 -1.407771 -39.623489
   vertex 62.000000 -1.407771 -40.000000
  endloop
 endfacet
 facet normal 0.000000 -1.000000 -0.000000
  outer loop
   vertex 62.433880 -1.407771 -39.900970
   vertex 62.623489 -1.407771 -39.781830
   vertex 62.000000 -1.407771 -40.000000
  endloop
 endfacet
 facet normal 0.000000 -1.000000 -0.000000
  outer loop
   vertex 62.222519 -1.407771 -39.974930
   vertex 62.433880 -1.407771 -39.900970
   vertex 62.000000 -1.407771 -40.000000
  endloop
 endfacet
 facet normal 0.000000 -1.000000 0.000000
  outer loop
   vertex 27.639999 -1.407771 -40.000000
   vertex 26.639999 -1.407771 -39.000000
   vertex 26.665070 -1.407771 -39.222519
  endloop
 endfacet
 facet normal -0.000000 -1.000000 -0.000000
  outer loop
   vertex 26.739031 -1.407771 -39.433880
   vertex 27.639999 -1.407771 -40.000000
   vertex 26.665070 -1.407771 -39.222519
  endloop
 endfacet
 facet normal -0.000000 -1.000000 -0.000000
  outer loop
   vertex 26.858170 -1.407771 -39.623489
   vertex 27.639999 -1.407771 -40.000000
   vertex 26.739031 -1.407771 -39.433880
  endloop
 endfacet
 facet normal 0.000000 -1.000000 0.000000
  outer loop
   vertex 27.639999 -1.407771 -40.000000
   vertex 26.858170 -1.407771 -39.623489
   vertex 27.016510 -1.407771 -39.781830
  endloop
 endfacet
 facet normal -0.000000 -1.000000 -0.000000
  outer loop
   vertex 27.206120 -1.407771 -39.900970
   vertex 27.639999 -1.407771 -40.000000
   vertex 27.016510 -1.407771 -39.781830
  endloop
 endfacet
 facet normal -0.000000 -1.000000 -0.000000
  outer loop
   vertex 27.417480 -1.407771 -39.974930
   vertex 27.639999 -1.407771 -40.000000
   vertex 27.206120 -1.407771 -39.900970
  endloop
 endfacet
 facet normal -0.000000 -1.000000 -0.000000
  outer loop
   vertex 61.000000 -1.407771 -19.000000
   vertex 63.000000 -1.407771 -39.000000
   vertex 63.000000 -1.407771 -19.000000
  endloop
 endfacet
 facet normal 0.000000 -1.000000 0.000000
  outer loop
   vertex 61.000000 -1.407771 -19.000000
   vertex 61.000000 -1.407771 -9.000000
   vertex 56.000000 -1.407771 -9.000000
  endloop
 endfacet
 facet normal -0.000000 -1.000000 -0.000000
  outer loop
   vertex 33.200001 -1.407771 -9.000000
   vertex 61.000000 -1.407771 -19.000000
   vertex 56.000000 -1.407771 -9.000000
  endloop
 endfacet
 facet normal -0.000000 -1.000000 -0.000000
  outer loop
   vertex 28.000000 -1.407771 -19.000000
   vertex 61.000000 -1.407771 -19.000000
   vertex 33.200001 -1.407771 -9.000000
  endloop
 endfacet
 facet normal -0.000000 -1.000000 0.000000
  outer loop
   vertex 28.000000 -1.407771 -9.000000
   vertex 28.000000 -1.407771 -19.000000
   vertex 33.200001 -1.407771 -9.000000
  endloop
 endfacet
 facet normal 0.000000 -1.000000 0.000000
  outer loop
   vertex 56.000000 -1.407771 -9.000000
   vertex 56.000000 -1.407771 -5.000000
   vertex 33.200001 -1.407771 -5.000000
  endloop
 endfacet
 facet normal -0.000000 -1.000000 -0.000000
  outer loop
   vertex 33.200001 -1.407771 -9.000000
   vertex 56.000000 -1.407771 -9.000000
   vertex 33.200001 -1.407771 -5.000000
  endloop
 endfacet
 facet normal -0.000000 -0.000000 -1.000000
  outer loop
   vertex 61.000000 -14.407770 -19.000000
   vertex 61.000000 -1.407771 -19.000000
   vertex 63.000000 -1.407771 -19.000000
  endloop
 endfacet
 facet normal 0.000000 -0.000000 -1.000000
  outer loop
   vertex 63.000000 -14.407770 -19.000000
   vertex 61.000000 -14.407770 -19.000000
   vertex 63.000000 -1.407771 -19.000000
  endloop
 endfacet
 facet normal -1.000000 0.000000 0.000000
  outer loop
   vertex 26.639999 -1.407771 -5.999860
   vertex 26.639999 -0.407771 -5.999860
   vertex 26.639999 -0.407771 -39.000000
  endloop
 endfacet
 facet normal -1.000000 -0.000000 -0.000000
  outer loop
   vertex 26.639999 -1.407771 -39.000000
   vertex 26.639999 -1.407771 -5.999860
   vertex 26.639999 -0.407771 -39.000000
  endloop
 endfacet
 facet normal 0.111957 0.000000 -0.993713
  outer loop
   vertex 62.222519 -1.407771 -39.974930
   vertex 62.000000 -1.407771 -40.000000
   vertex 62.000000 -0.407771 -40.000000
  endloop
 endfacet
 facet normal 0.111957 0.000000 -0.993713
  outer loop
   vertex 62.222519 -0.407771 -39.974930
   vertex 62.222519 -1.407771 -39.974930
   vertex 62.000000 -0.407771 -40.000000
  endloop
 endfacet
 facet normal 0.330283 0.000000 -0.943882
  outer loop
   vertex 62.433880 -0.407771 -39.900970
   vertex 62.222519 -1.407771 -39.974930
   vertex 62.222519 -0.407771 -39.974930
  endloop
 endfacet
 facet normal 0.330283 0.000000 -0.943882
  outer loop
   vertex 62.433880 -1.407771 -39.900970
   vertex 62.222519 -1.407771 -39.974930
   vertex 62.433880 -0.407771 -39.900970
  endloop
 endfacet
 facet normal 0.532035 0.000000 -0.846722
  outer loop
   vertex 62.623489 -0.407771 -39.781830
   vertex 62.433880 -1.407771 -39.900970
   vertex 62.433880 -0.407771 -39.900970
  endloop
 endfacet
 facet normal 0.532035 0.000000 -0.846722
  outer loop
   vertex 62.623489 -1.407771 -39.781830
   vertex 62.433880 -1.407771 -39.900970
   vertex 62.623489 -0.407771 -39.781830
  endloop
 endfacet
 facet normal 0.707107 0.000000 -0.707107
  outer loop
   vertex 62.781830 -0.407771 -39.623489
   vertex 62.623489 -1.407771 -39.781830
   vertex 62.623489 -0.407771 -39.781830
  endloop
 endfacet
 facet normal 0.707107 0.000000 -0.707107
  outer loop
   vertex 62.781830 -1.407771 -39.623489
   vertex 62.623489 -1.407771 -39.781830
   vertex 62.781830 -0.407771 -39.623489
  endloop
 endfacet
 facet normal 0.846722 0.000000 -0.532035
  outer loop
   vertex 62.900970 -0.407771 -39.433880
   vertex 62.781830 -1.407771 -39.623489
   vertex 62.781830 -0.407771 -39.623489
  endloop
 endfacet
 facet normal 0.846722 0.000000 -0.532035
  outer loop
   vertex 62.900970 -1.407771 -39.433880
   vertex 62.781830 -1.407771 -39.623489
   vertex 62.900970 -0.407771 -39.433880
  endloop
 endfacet
 facet normal 0.943882 0.000000 -0.330283
  outer loop
   vertex 62.974930 -0.407771 -39.222519
   vertex 62.900970 -1.407771 -39.433880
   vertex 62.900970 -0.407771 -39.433880
  endloop
 endfacet
 facet normal 0.943882 0.000000 -0.330283
  outer loop
   vertex 62.974930 -1.407771 -39.222519
   vertex 62.900970 -1.407771 -39.433880
   vertex 62.974930 -0.407771 -39.222519
  endloop
 endfacet
 facet normal 0.993713 0.000000 -0.111957
  outer loop
   vertex 63.000000 -1.407771 -39.000000
   vertex 62.974930 -1.407771 -39.222519
   vertex 62.974930 -0.407771 -39.222519
  endloop
 endfacet
 facet normal 0.993713 0.000000 -0.111957
  outer loop
   vertex 63.000000 -0.407771 -39.000000
   vertex 63.000000 -1.407771 -39.000000
   vertex 62.974930 -0.407771 -39.222519
  endloop
 endfacet
 facet normal -0.000000 -0.000000 -1.000000
  outer loop
   vertex 27.639999 -1.407771 -40.000000
   vertex 27.639999 -0.407771 -40.000000
   vertex 62.000000 -0.407771 -40.000000
  endloop
 endfacet
 facet normal 0.000000 -0.000000 -1.000000
  outer loop
   vertex 62.000000 -1.407771 -40.000000
   vertex 27.639999 -1.407771 -40.000000
   vertex 62.000000 -0.407771 -40.000000
  endloop
 endfacet
 facet normal -0.993713 -0.000000 -0.111957
  outer loop
   vertex 26.665070 -1.407771 -39.222519
   vertex 26.639999 -1.407771 -39.000000
   vertex 26.639999 -0.407771 -39.000000
  endloop
 endfacet
 facet normal -0.993713 0.000000 -0.111957
  outer loop
   vertex 26.665070 -0.407771 -39.222519
   vertex 26.665070 -1.407771 -39.222519
   vertex 26.639999 -0.407771 -39.000000
  endloop
 endfacet
 facet normal -0.943879 -0.000000 -0.330290
  outer loop
   vertex 26.739031 -0.407771 -39.433880
   vertex 26.665070 -1.407771 -39.222519
   vertex 26.665070 -0.407771 -39.222519
  endloop
 endfacet
 facet normal -0.943879 0.000000 -0.330290
  outer loop
   vertex 26.739031 -1.407771 -39.433880
   vertex 26.665070 -1.407771 -39.222519
   vertex 26.739031 -0.407771 -39.433880
  endloop
 endfacet
 facet normal -0.846726 -0.000000 -0.532029
  outer loop
   vertex 26.858170 -0.407771 -39.623489
   vertex 26.739031 -1.407771 -39.433880
   vertex 26.739031 -0.407771 -39.433880
  endloop
 endfacet
 facet normal -0.846726 0.000000 -0.532029
  outer loop
   vertex 26.858170 -1.407771 -39.623489
   vertex 26.739031 -1.407771 -39.433880
   vertex 26.858170 -0.407771 -39.623489
  endloop
 endfacet
 facet normal -0.707107 -0.000000 -0.707107
  outer loop
   vertex 27.016510 -0.407771 -39.781830
   vertex 26.858170 -1.407771 -39.623489
   vertex 26.858170 -0.407771 -39.623489
  endloop
 endfacet
 facet normal -0.707107 0.000000 -0.707107
  outer loop
   vertex 27.016510 -1.407771 -39.781830
   vertex 26.858170 -1.407771 -39.623489
   vertex 27.016510 -0.407771 -39.781830
  endloop
 endfacet
 facet normal -0.532035 -0.000000 -0.846722
  outer loop
   vertex 27.206120 -0.407771 -39.900970
   vertex 27.016510 -1.407771 -39.781830
   vertex 27.016510 -0.407771 -39.781830
  endloop
 endfacet
 facet normal -0.532035 0.000000 -0.846722
  outer loop
   vertex 27.206120 -1.407771 -39.900970
   vertex 27.016510 -1.407771 -39.781830
   vertex 27.206120 -0.407771 -39.900970
  endloop
 endfacet
 facet normal -0.330283 -0.000000 -0.943882
  outer loop
   vertex 27.417480 -0.407771 -39.974930
   vertex 27.206120 -1.407771 -39.900970
   vertex 27.206120 -0.407771 -39.900970
  endloop
 endfacet
 facet normal -0.330283 0.000000 -0.943882
  outer loop
   vertex 27.417480 -1.407771 -39.974930
   vertex 27.206120 -1.407771 -39.900970
   vertex 27.417480 -0.407771 -39.974930
  endloop
 endfacet
 facet normal -0.111957 -0.000000 -0.993713
  outer loop
   vertex 27.639999 -1.407771 -40.000000
   vertex 27.417480 -1.407771 -39.974930
   vertex 27.417480 -0.407771 -39.974930
  endloop
 endfacet
 facet normal -0.111957 0.000000 -0.993713
  outer loop
   vertex 27.639999 -0.407771 -40.000000
   vertex 27.639999 -1.407771 -40.000000
   vertex 27.417480 -0.407771 -39.974930
  endloop
 endfacet
 facet normal -1.000000 0.000000 0.000000
  outer loop
   vertex 26.641460 -14.407770 -6.000000
   vertex 26.641460 -1.407771 -6.000000
   vertex 26.641460 -1.407771 -19.000000
  endloop
 endfacet
 facet normal -1.000000 -0.000000 -0.000000
  outer loop
   vertex 26.641460 -14.407770 -19.000000
   vertex 26.641460 -14.407770 -6.000000
   vertex 26.641460 -1.407771 -19.000000
  endloop
 endfacet
 facet normal 0.000000 -1.000000 0.000000
  outer loop
   vertex 63.000000 -14.407770 -6.000000
   vertex 62.974930 -14.407770 -5.777479
   vertex 62.900970 -14.407770 -5.566116
  endloop
 endfacet
 facet normal -0.000000 -1.000000 -0.000000
  outer loop
   vertex 62.781830 -14.407770 -5.376510
   vertex 63.000000 -14.407770 -6.000000
   vertex 62.900970 -14.407770 -5.566116
  endloop
 endfacet
 facet normal -0.000000 -1.000000 -0.000000
  outer loop
   vertex 62.623489 -14.407770 -5.218169
   vertex 63.000000 -14.407770 -6.000000
   vertex 62.781830 -14.407770 -5.376510
  endloop
 endfacet
 facet normal 0.000000 -1.000000 0.000000
  outer loop
   vertex 63.000000 -14.407770 -6.000000
   vertex 62.623489 -14.407770 -5.218169
   vertex 62.433880 -14.407770 -5.099031
  endloop
 endfacet
 facet normal -0.000000 -1.000000 -0.000000
  outer loop
   vertex 62.222519 -14.407770 -5.025072
   vertex 63.000000 -14.407770 -6.000000
   vertex 62.433880 -14.407770 -5.099031
  endloop
 endfacet
 facet normal -0.000000 -1.000000 -0.000000
  outer loop
   vertex 62.000000 -14.407770 -5.000000
   vertex 63.000000 -14.407770 -6.000000
   vertex 62.222519 -14.407770 -5.025072
  endloop
 endfacet
 facet normal 0.000000 -1.000000 -0.000000
  outer loop
   vertex 61.000000 -14.407770 -9.000000
   vertex 63.000000 -14.407770 -6.000000
   vertex 62.000000 -14.407770 -5.000000
  endloop
 endfacet
 facet normal -0.000000 -1.000000 0.000000
  outer loop
   vertex 56.000000 -14.407770 -5.000000
   vertex 61.000000 -14.407770 -9.000000
   vertex 62.000000 -14.407770 -5.000000
  endloop
 endfacet
 facet normal -0.000000 -1.000000 -0.000000
  outer loop
   vertex 56.000000 -14.407770 -9.000000
   vertex 61.000000 -14.407770 -9.000000
   vertex 56.000000 -14.407770 -5.000000
  endloop
 endfacet
 facet normal 0.000000 -1.000000 0.000000
  outer loop
   vertex 61.000000 -14.407770 -9.000000
   vertex 61.000000 -14.407770 -19.000000
   vertex 63.000000 -14.407770 -19.000000
  endloop
 endfacet
 facet normal 0.000000 -1.000000 0.000000
  outer loop
   vertex 63.000000 -14.407770 -6.000000
   vertex 61.000000 -14.407770 -9.000000
   vertex 63.000000 -14.407770 -19.000000
  endloop
 endfacet
 facet normal 0.000000 0.000000 -1.000000
  outer loop
   vertex 56.000000 -1.407771 -9.000000
   vertex 61.000000 -1.407771 -9.000000
   vertex 58.492500 -7.007771 -9.000000
  endloop
 endfacet
 facet normal -0.000000 -0.000000 -1.000000
  outer loop
   vertex 58.363091 -7.024808 -9.000000
   vertex 56.000000 -1.407771 -9.000000
   vertex 58.492500 -7.007771 -9.000000
  endloop
 endfacet
 facet normal -0.000000 -0.000000 -1.000000
  outer loop
   vertex 58.242500 -7.074758 -9.000000
   vertex 56.000000 -1.407771 -9.000000
   vertex 58.363091 -7.024808 -9.000000
  endloop
 endfacet
 facet normal 0.000000 0.000000 -1.000000
  outer loop
   vertex 61.000000 -1.407771 -9.000000
   vertex 61.000000 -14.407770 -9.000000
   vertex 58.992500 -7.507771 -9.000000
  endloop
 endfacet
 facet normal -0.000000 0.000000 -1.000000
  outer loop
   vertex 58.975460 -7.378361 -9.000000
   vertex 61.000000 -1.407771 -9.000000
   vertex 58.992500 -7.507771 -9.000000
  endloop
 endfacet
 facet normal -0.000000 0.000000 -1.000000
  outer loop
   vertex 58.925510 -7.257771 -9.000000
   vertex 61.000000 -1.407771 -9.000000
   vertex 58.975460 -7.378361 -9.000000
  endloop
 endfacet
 facet normal 0.000000 -0.000000 -1.000000
  outer loop
   vertex 61.000000 -14.407770 -9.000000
   vertex 56.000000 -14.407770 -9.000000
   vertex 58.492500 -8.007771 -9.000000
  endloop
 endfacet
 facet normal 0.000000 0.000000 -1.000000
  outer loop
   vertex 58.621910 -7.990734 -9.000000
   vertex 61.000000 -14.407770 -9.000000
   vertex 58.492500 -8.007771 -9.000000
  endloop
 endfacet
 facet normal 0.000000 0.000000 -1.000000
  outer loop
   vertex 58.742500 -7.940783 -9.000000
   vertex 61.000000 -14.407770 -9.000000
   vertex 58.621910 -7.990734 -9.000000
  endloop
 endfacet
 facet normal -0.000000 -0.000000 -1.000000
  outer loop
   vertex 56.000000 -14.407770 -9.000000
   vertex 56.000000 -1.407771 -9.000000
   vertex 57.992500 -7.507771 -9.000000
  endloop
 endfacet
 facet normal 0.000000 -0.000000 -1.000000
  outer loop
   vertex 58.009529 -7.637180 -9.000000
   vertex 56.000000 -14.407770 -9.000000
   vertex 57.992500 -7.507771 -9.000000
  endloop
 endfacet
 facet normal 0.000000 -0.000000 -1.000000
  outer loop
   vertex 58.059479 -7.757771 -9.000000
   vertex 56.000000 -14.407770 -9.000000
   vertex 58.009529 -7.637180 -9.000000
  endloop
 endfacet
 facet normal 0.000000 0.000000 -1.000000
  outer loop
   vertex 61.000000 -1.407771 -9.000000
   vertex 58.925510 -7.257771 -9.000000
   vertex 58.846050 -7.154217 -9.000000
  endloop
 endfacet
 facet normal -0.000000 0.000000 -1.000000
  outer loop
   vertex 58.742500 -7.074758 -9.000000
   vertex 61.000000 -1.407771 -9.000000
   vertex 58.846050 -7.154217 -9.000000
  endloop
 endfacet
 facet normal -0.000000 0.000000 -1.000000
  outer loop
   vertex 58.621910 -7.024808 -9.000000
   vertex 61.000000 -1.407771 -9.000000
   vertex 58.742500 -7.074758 -9.000000
  endloop
 endfacet
 facet normal 0.000000 0.000000 -1.000000
  outer loop
   vertex 61.000000 -1.407771 -9.000000
   vertex 58.621910 -7.024808 -9.000000
   vertex 58.492500 -7.007771 -9.000000
  endloop
 endfacet
 facet normal 0.000000 0.000000 -1.000000
  outer loop
   vertex 56.000000 -1.407771 -9.000000
   vertex 58.242500 -7.074758 -9.000000
   vertex 58.138939 -7.154217 -9.000000
  endloop
 endfacet
 facet normal -0.000000 -0.000000 -1.000000
  outer loop
   vertex 58.059479 -7.257771 -9.000000
   vertex 56.000000 -1.407771 -9.000000
   vertex 58.138939 -7.154217 -9.000000
  endloop
 endfacet
 facet normal -0.000000 -0.000000 -1.000000
  outer loop
   vertex 58.009529 -7.378361 -9.000000
   vertex 56.000000 -1.407771 -9.000000
   vertex 58.059479 -7.257771 -9.000000
  endloop
 endfacet
 facet normal 0.000000 0.000000 -1.000000
  outer loop
   vertex 56.000000 -1.407771 -9.000000
   vertex 58.009529 -7.378361 -9.000000
   vertex 57.992500 -7.507771 -9.000000
  endloop
 endfacet
 facet normal -0.000000 0.000000 -1.000000
  outer loop
   vertex 56.000000 -14.407770 -9.000000
   vertex 58.059479 -7.757771 -9.000000
   vertex 58.138939 -7.861324 -9.000000
  endloop
 endfacet
 facet normal 0.000000 -0.000000 -1.000000
  outer loop
   vertex 58.242500 -7.940783 -9.000000
   vertex 56.000000 -14.407770 -9.000000
   vertex 58.138939 -7.861324 -9.000000
  endloop
 endfacet
 facet normal 0.000000 -0.000000 -1.000000
  outer loop
   vertex 58.363091 -7.990734 -9.000000
   vertex 56.000000 -14.407770 -9.000000
   vertex 58.242500 -7.940783 -9.000000
  endloop
 endfacet
 facet normal -0.000000 0.000000 -1.000000
  outer loop
   vertex 56.000000 -14.407770 -9.000000
   vertex 58.363091 -7.990734 -9.000000
   vertex 58.492500 -8.007771 -9.000000
  endloop
 endfacet
 facet normal 0.000000 -0.000000 -1.000000
  outer loop
   vertex 61.000000 -14.407770 -9.000000
   vertex 58.742500 -7.940783 -9.000000
   vertex 58.846050 -7.861324 -9.000000
  endloop
 endfacet
 facet normal 0.000000 0.000000 -1.000000
  outer loop
   vertex 58.925510 -7.757771 -9.000000
   vertex 61.000000 -14.407770 -9.000000
   vertex 58.846050 -7.861324 -9.000000
  endloop
 endfacet
 facet normal 0.000000 0.000000 -1.000000
  outer loop
   vertex 58.975460 -7.637180 -9.000000
   vertex 61.000000 -14.407770 -9.000000
   vertex 58.925510 -7.757771 -9.000000
  endloop
 endfacet
 facet normal 0.000000 -0.000000 -1.000000
  outer loop
   vertex 61.000000 -14.407770 -9.000000
   vertex 58.975460 -7.637180 -9.000000
   vertex 58.992500 -7.507771 -9.000000
  endloop
 endfacet
 facet normal -1.000000 0.000000 0.000000
  outer loop
   vertex 56.000000 -14.407770 -5.000000
   vertex 56.000000 -1.407771 -5.000000
   vertex 56.000000 -1.407771 -9.000000
  endloop
 endfacet
 facet normal -1.000000 -0.000000 -0.000000
  outer loop
   vertex 56.000000 -14.407770 -9.000000
   vertex 56.000000 -14.407770 -5.000000
   vertex 56.000000 -1.407771 -9.000000
  endloop
 endfacet
 facet normal -1.000000 0.000000 0.000000
  outer loop
   vertex 61.000000 -14.407770 -9.000000
   vertex 61.000000 -1.407771 -9.000000
   vertex 61.000000 -1.407771 -19.000000
  endloop
 endfacet
 facet normal -1.000000 -0.000000 -0.000000
  outer loop
   vertex 61.000000 -14.407770 -19.000000
   vertex 61.000000 -14.407770 -9.000000
   vertex 61.000000 -1.407771 -19.000000
  endloop
 endfacet
 facet normal -0.991442 -0.130550 0.000000
  outer loop
   vertex 58.992500 -7.507771 -5.000000
   vertex 58.975460 -7.378361 -5.000000
   vertex 58.975460 -7.378361 -7.000000
  endloop
 endfacet
 facet normal -0.991442 -0.130550 -0.000000
  outer loop
   vertex 58.992500 -7.507771 -7.000000
   vertex 58.992500 -7.507771 -5.000000
   vertex 58.975460 -7.378361 -7.000000
  endloop
 endfacet
 facet normal -0.991442 0.130551 0.000000
  outer loop
   vertex 58.975460 -7.637180 -5.000000
   vertex 58.992500 -7.507771 -5.000000
   vertex 58.992500 -7.507771 -7.000000
  endloop
 endfacet
 facet normal -0.991442 0.130551 0.000000
  outer loop
   vertex 58.975460 -7.637180 -7.000000
   vertex 58.975460 -7.637180 -5.000000
   vertex 58.992500 -7.507771 -7.000000
  endloop
 endfacet
 facet normal -0.923882 0.382678 0.000000
  outer loop
   vertex 58.925510 -7.757771 -5.000000
   vertex 58.975460 -7.637180 -5.000000
   vertex 58.975460 -7.637180 -7.000000
  endloop
 endfacet
 facet normal -0.923882 0.382678 0.000000
  outer loop
   vertex 58.925510 -7.757771 -7.000000
   vertex 58.925510 -7.757771 -5.000000
   vertex 58.975460 -7.637180 -7.000000
  endloop
 endfacet
 facet normal -0.793349 0.608768 0.000000
  outer loop
   vertex 58.846050 -7.861324 -5.000000
   vertex 58.925510 -7.757771 -5.000000
   vertex 58.925510 -7.757771 -7.000000
  endloop
 endfacet
 facet normal -0.793349 0.608768 0.000000
  outer loop
   vertex 58.846050 -7.861324 -7.000000
   vertex 58.846050 -7.861324 -5.000000
   vertex 58.925510 -7.757771 -7.000000
  endloop
 endfacet
 facet normal -0.608774 0.793344 0.000000
  outer loop
   vertex 58.742500 -7.940783 -5.000000
   vertex 58.846050 -7.861324 -5.000000
   vertex 58.846050 -7.861324 -7.000000
  endloop
 endfacet
 facet normal -0.608774 0.793344 0.000000
  outer loop
   vertex 58.742500 -7.940783 -7.000000
   vertex 58.742500 -7.940783 -5.000000
   vertex 58.846050 -7.861324 -7.000000
  endloop
 endfacet
 facet normal -0.382690 0.923877 0.000000
  outer loop
   vertex 58.621910 -7.990734 -5.000000
   vertex 58.742500 -7.940783 -5.000000
   vertex 58.742500 -7.940783 -7.000000
  endloop
 endfacet
 facet normal -0.382690 0.923877 0.000000
  outer loop
   vertex 58.621910 -7.990734 -7.000000
   vertex 58.621910 -7.990734 -5.000000
   vertex 58.742500 -7.940783 -7.000000
  endloop
 endfacet
 facet normal -0.130521 0.991446 0.000000
  outer loop
   vertex 58.492500 -8.007771 -5.000000
   vertex 58.621910 -7.990734 -5.000000
   vertex 58.621910 -7.990734 -7.000000
  endloop
 endfacet
 facet normal -0.130521 0.991446 0.000000
  outer loop
   vertex 58.492500 -8.007771 -7.000000
   vertex 58.492500 -8.007771 -5.000000
   vertex 58.621910 -7.990734 -7.000000
  endloop
 endfacet
 facet normal 0.130521 0.991446 -0.000000
  outer loop
   vertex 58.363091 -7.990734 -5.000000
   vertex 58.492500 -8.007771 -5.000000
   vertex 58.492500 -8.007771 -7.000000
  endloop
 endfacet
 facet normal 0.130521 0.991446 0.000000
  outer loop
   vertex 58.363091 -7.990734 -7.000000
   vertex 58.363091 -7.990734 -5.000000
   vertex 58.492500 -8.007771 -7.000000
  endloop
 endfacet
 facet normal 0.382690 0.923877 -0.000000
  outer loop
   vertex 58.242500 -7.940783 -5.000000
   vertex 58.363091 -7.990734 -5.000000
   vertex 58.363091 -7.990734 -7.000000
  endloop
 endfacet
 facet normal 0.382690 0.923877 0.000000
  outer loop
   vertex 58.242500 -7.940783 -7.000000
   vertex 58.242500 -7.940783 -5.000000
   vertex 58.363091 -7.990734 -7.000000
  endloop
 endfacet
 facet normal 0.608731 0.793377 -0.000000
  outer loop
   vertex 58.138939 -7.861324 -5.000000
   vertex 58.242500 -7.940783 -5.000000
   vertex 58.242500 -7.940783 -7.000000
  endloop
 endfacet
 facet normal 0.608731 0.793377 0.000000
  outer loop
   vertex 58.138939 -7.861324 -7.000000
   vertex 58.138939 -7.861324 -5.000000
   vertex 58.242500 -7.940783 -7.000000
  endloop
 endfacet
 facet normal 0.793349 0.608768 -0.000000
  outer loop
   vertex 58.059479 -7.757771 -5.000000
   vertex 58.138939 -7.861324 -5.000000
   vertex 58.138939 -7.861324 -7.000000
  endloop
 endfacet
 facet normal 0.793349 0.608768 0.000000
  outer loop
   vertex 58.059479 -7.757771 -7.000000
   vertex 58.059479 -7.757771 -5.000000
   vertex 58.138939 -7.861324 -7.000000
  endloop
 endfacet
 facet normal 0.923882 0.382678 -0.000000
  outer loop
   vertex 58.009529 -7.637180 -5.000000
   vertex 58.059479 -7.757771 -5.000000
   vertex 58.059479 -7.757771 -7.000000
  endloop
 endfacet
 facet normal 0.923882 0.382678 0.000000
  outer loop
   vertex 58.009529 -7.637180 -7.000000
   vertex 58.009529 -7.637180 -5.000000
   vertex 58.059479 -7.757771 -7.000000
  endloop
 endfacet
 facet normal 0.991453 0.130465 -0.000000
  outer loop
   vertex 57.992500 -7.507771 -5.000000
   vertex 58.009529 -7.637180 -5.000000
   vertex 58.009529 -7.637180 -7.000000
  endloop
 endfacet
 facet normal 0.991453 0.130465 0.000000
  outer loop
   vertex 57.992500 -7.507771 -7.000000
   vertex 57.992500 -7.507771 -5.000000
   vertex 58.009529 -7.637180 -7.000000
  endloop
 endfacet
 facet normal 0.991453 -0.130464 0.000000
  outer loop
   vertex 58.009529 -7.378361 -5.000000
   vertex 57.992500 -7.507771 -5.000000
   vertex 57.992500 -7.507771 -7.000000
  endloop
 endfacet
 facet normal 0.991453 -0.130464 0.000000
  outer loop
   vertex 58.009529 -7.378361 -7.000000
   vertex 58.009529 -7.378361 -5.000000
   vertex 57.992500 -7.507771 -7.000000
  endloop
 endfacet
 facet normal 0.923881 -0.382680 0.000000
  outer loop
   vertex 58.059479 -7.257771 -5.000000
   vertex 58.009529 -7.378361 -5.000000
   vertex 58.009529 -7.378361 -7.000000
  endloop
 endfacet
 facet normal 0.923881 -0.382680 0.000000
  outer loop
   vertex 58.059479 -7.257771 -7.000000
   vertex 58.059479 -7.257771 -5.000000
   vertex 58.009529 -7.378361 -7.000000
  endloop
 endfacet
 facet normal 0.793353 -0.608762 0.000000
  outer loop
   vertex 58.138939 -7.154217 -5.000000
   vertex 58.059479 -7.257771 -5.000000
   vertex 58.059479 -7.257771 -7.000000
  endloop
 endfacet
 facet normal 0.793353 -0.608762 0.000000
  outer loop
   vertex 58.138939 -7.154217 -7.000000
   vertex 58.138939 -7.154217 -5.000000
   vertex 58.059479 -7.257771 -7.000000
  endloop
 endfacet
 facet normal 0.608729 -0.793378 0.000000
  outer loop
   vertex 58.242500 -7.074758 -5.000000
   vertex 58.138939 -7.154217 -5.000000
   vertex 58.138939 -7.154217 -7.000000
  endloop
 endfacet
 facet normal 0.608729 -0.793378 0.000000
  outer loop
   vertex 58.242500 -7.074758 -7.000000
   vertex 58.242500 -7.074758 -5.000000
   vertex 58.138939 -7.154217 -7.000000
  endloop
 endfacet
 facet normal 0.382684 -0.923879 0.000000
  outer loop
   vertex 58.363091 -7.024808 -5.000000
   vertex 58.242500 -7.074758 -5.000000
   vertex 58.242500 -7.074758 -7.000000
  endloop
 endfacet
 facet normal 0.382684 -0.923879 0.000000
  outer loop
   vertex 58.363091 -7.024808 -7.000000
   vertex 58.363091 -7.024808 -5.000000
   vertex 58.242500 -7.074758 -7.000000
  endloop
 endfacet
 facet normal 0.130525 -0.991445 0.000000
  outer loop
   vertex 58.492500 -7.007771 -5.000000
   vertex 58.363091 -7.024808 -5.000000
   vertex 58.363091 -7.024808 -7.000000
  endloop
 endfacet
 facet normal 0.130525 -0.991445 0.000000
  outer loop
   vertex 58.492500 -7.007771 -7.000000
   vertex 58.492500 -7.007771 -5.000000
   vertex 58.363091 -7.024808 -7.000000
  endloop
 endfacet
 facet normal -0.130525 -0.991445 0.000000
  outer loop
   vertex 58.621910 -7.024808 -5.000000
   vertex 58.492500 -7.007771 -5.000000
   vertex 58.492500 -7.007771 -7.000000
  endloop
 endfacet
 facet normal -0.130525 -0.991445 -0.000000
  outer loop
   vertex 58.621910 -7.024808 -7.000000
   vertex 58.621910 -7.024808 -5.000000
   vertex 58.492500 -7.007771 -7.000000
  endloop
 endfacet
 facet normal -0.382684 -0.923879 0.000000
  outer loop
   vertex 58.742500 -7.074758 -5.000000
   vertex 58.621910 -7.024808 -5.000000
   vertex 58.621910 -7.024808 -7.000000
  endloop
 endfacet
 facet normal -0.382684 -0.923879 -0.000000
  outer loop
   vertex 58.742500 -7.074758 -7.000000
   vertex 58.742500 -7.074758 -5.000000
   vertex 58.621910 -7.024808 -7.000000
  endloop
 endfacet
 facet normal -0.608771 -0.793346 0.000000
  outer loop
   vertex 58.846050 -7.154217 -5.000000
   vertex 58.742500 -7.074758 -5.000000
   vertex 58.742500 -7.074758 -7.000000
  endloop
 endfacet
 facet normal -0.608771 -0.793346 -0.000000
  outer loop
   vertex 58.846050 -7.154217 -7.000000
   vertex 58.846050 -7.154217 -5.000000
   vertex 58.742500 -7.074758 -7.000000
  endloop
 endfacet
 facet normal -0.793353 -0.608762 0.000000
  outer loop
   vertex 58.925510 -7.257771 -5.000000
   vertex 58.846050 -7.154217 -5.000000
   vertex 58.846050 -7.154217 -7.000000
  endloop
 endfacet
 facet normal -0.793353 -0.608762 -0.000000
  outer loop
   vertex 58.925510 -7.257771 -7.000000
   vertex 58.925510 -7.257771 -5.000000
   vertex 58.846050 -7.154217 -7.000000
  endloop
 endfacet
 facet normal -0.923881 -0.382680 0.000000
  outer loop
   vertex 58.975460 -7.378361 -5.000000
   vertex 58.925510 -7.257771 -5.000000
   vertex 58.925510 -7.257771 -7.000000
  endloop
 endfacet
 facet normal -0.923881 -0.382680 -0.000000
  outer loop
   vertex 58.975460 -7.378361 -7.000000
   vertex 58.975460 -7.378361 -5.000000
   vertex 58.925510 -7.257771 -7.000000
  endloop
 endfacet
 facet normal -0.991442 0.130551 0.000000
  outer loop
   vertex 58.992500 -7.507771 -9.000000
   vertex 58.975460 -7.637180 -9.000000
   vertex 58.975460 -7.637180 -7.000000
  endloop
 endfacet
 facet normal -0.991442 0.130551 0.000000
  outer loop
   vertex 58.992500 -7.507771 -7.000000
   vertex 58.992500 -7.507771 -9.000000
   vertex 58.975460 -7.637180 -7.000000
  endloop
 endfacet
 facet normal -0.991442 -0.130550 -0.000000
  outer loop
   vertex 58.975460 -7.378361 -9.000000
   vertex 58.992500 -7.507771 -9.000000
   vertex 58.992500 -7.507771 -7.000000
  endloop
 endfacet
 facet normal -0.991442 -0.130550 0.000000
  outer loop
   vertex 58.975460 -7.378361 -7.000000
   vertex 58.975460 -7.378361 -9.000000
   vertex 58.992500 -7.507771 -7.000000
  endloop
 endfacet
 facet normal -0.923881 -0.382680 -0.000000
  outer loop
   vertex 58.925510 -7.257771 -9.000000
   vertex 58.975460 -7.378361 -9.000000
   vertex 58.975460 -7.378361 -7.000000
  endloop
 endfacet
 facet normal -0.923881 -0.382680 0.000000
  outer loop
   vertex 58.925510 -7.257771 -7.000000
   vertex 58.925510 -7.257771 -9.000000
   vertex 58.975460 -7.378361 -7.000000
  endloop
 endfacet
 facet normal -0.793353 -0.608762 -0.000000
  outer loop
   vertex 58.846050 -7.154217 -9.000000
   vertex 58.925510 -7.257771 -9.000000
   vertex 58.925510 -7.257771 -7.000000
  endloop
 endfacet
 facet normal -0.793353 -0.608762 0.000000
  outer loop
   vertex 58.846050 -7.154217 -7.000000
   vertex 58.846050 -7.154217 -9.000000
   vertex 58.925510 -7.257771 -7.000000
  endloop
 endfacet
 facet normal -0.608771 -0.793346 -0.000000
  outer loop
   vertex 58.742500 -7.074758 -9.000000
   vertex 58.846050 -7.154217 -9.000000
   vertex 58.846050 -7.154217 -7.000000
  endloop
 endfacet
 facet normal -0.608771 -0.793346 0.000000
  outer loop
   vertex 58.742500 -7.074758 -7.000000
   vertex 58.742500 -7.074758 -9.000000
   vertex 58.846050 -7.154217 -7.000000
  endloop
 endfacet
 facet normal -0.382684 -0.923879 -0.000000
  outer loop
   vertex 58.621910 -7.024808 -9.000000
   vertex 58.742500 -7.074758 -9.000000
   vertex 58.742500 -7.074758 -7.000000
  endloop
 endfacet
 facet normal -0.382684 -0.923879 0.000000
  outer loop
   vertex 58.621910 -7.024808 -7.000000
   vertex 58.621910 -7.024808 -9.000000
   vertex 58.742500 -7.074758 -7.000000
  endloop
 endfacet
 facet normal -0.130525 -0.991445 -0.000000
  outer loop
   vertex 58.492500 -7.007771 -9.000000
   vertex 58.621910 -7.024808 -9.000000
   vertex 58.621910 -7.024808 -7.000000
  endloop
 endfacet
 facet normal -0.130525 -0.991445 0.000000
  outer loop
   vertex 58.492500 -7.007771 -7.000000
   vertex 58.492500 -7.007771 -9.000000
   vertex 58.621910 -7.024808 -7.000000
  endloop
 endfacet
 facet normal 0.130525 -0.991445 0.000000
  outer loop
   vertex 58.363091 -7.024808 -9.000000
   vertex 58.492500 -7.007771 -9.000000
   vertex 58.492500 -7.007771 -7.000000
  endloop
 endfacet
 facet normal 0.130525 -0.991445 0.000000
  outer loop
   vertex 58.363091 -7.024808 -7.000000
   vertex 58.363091 -7.024808 -9.000000
   vertex 58.492500 -7.007771 -7.000000
  endloop
 endfacet
 facet normal 0.382684 -0.923879 0.000000
  outer loop
   vertex 58.242500 -7.074758 -9.000000
   vertex 58.363091 -7.024808 -9.000000
   vertex 58.363091 -7.024808 -7.000000
  endloop
 endfacet
 facet normal 0.382684 -0.923879 0.000000
  outer loop
   vertex 58.242500 -7.074758 -7.000000
   vertex 58.242500 -7.074758 -9.000000
   vertex 58.363091 -7.024808 -7.000000
  endloop
 endfacet
 facet normal 0.608729 -0.793378 0.000000
  outer loop
   vertex 58.138939 -7.154217 -9.000000
   vertex 58.242500 -7.074758 -9.000000
   vertex 58.242500 -7.074758 -7.000000
  endloop
 endfacet
 facet normal 0.608729 -0.793378 0.000000
  outer loop
   vertex 58.138939 -7.154217 -7.000000
   vertex 58.138939 -7.154217 -9.000000
   vertex 58.242500 -7.074758 -7.000000
  endloop
 endfacet
 facet normal 0.793353 -0.608762 0.000000
  outer loop
   vertex 58.059479 -7.257771 -9.000000
   vertex 58.138939 -7.154217 -9.000000
   vertex 58.138939 -7.154217 -7.000000
  endloop
 endfacet
 facet normal 0.793353 -0.608762 0.000000
  outer loop
   vertex 58.059479 -7.257771 -7.000000
   vertex 58.059479 -7.257771 -9.000000
   vertex 58.138939 -7.154217 -7.000000
  endloop
 endfacet
 facet normal 0.923881 -0.382680 0.000000
  outer loop
   vertex 58.009529 -7.378361 -9.000000
   vertex 58.059479 -7.257771 -9.000000
   vertex 58.059479 -7.257771 -7.000000
  endloop
 endfacet
 facet normal 0.923881 -0.382680 0.000000
  outer loop
   vertex 58.009529 -7.378361 -7.000000
   vertex 58.009529 -7.378361 -9.000000
   vertex 58.059479 -7.257771 -7.000000
  endloop
 endfacet
 facet normal 0.991453 -0.130464 0.000000
  outer loop
   vertex 57.992500 -7.507771 -9.000000
   vertex 58.009529 -7.378361 -9.000000
   vertex 58.009529 -7.378361 -7.000000
  endloop
 endfacet
 facet normal 0.991453 -0.130464 0.000000
  outer loop
   vertex 57.992500 -7.507771 -7.000000
   vertex 57.992500 -7.507771 -9.000000
   vertex 58.009529 -7.378361 -7.000000
  endloop
 endfacet
 facet normal 0.991453 0.130465 0.000000
  outer loop
   vertex 58.009529 -7.637180 -9.000000
   vertex 57.992500 -7.507771 -9.000000
   vertex 57.992500 -7.507771 -7.000000
  endloop
 endfacet
 facet normal 0.991453 0.130465 -0.000000
  outer loop
   vertex 58.009529 -7.637180 -7.000000
   vertex 58.009529 -7.637180 -9.000000
   vertex 57.992500 -7.507771 -7.000000
  endloop
 endfacet
 facet normal 0.923882 0.382678 0.000000
  outer loop
   vertex 58.059479 -7.757771 -9.000000
   vertex 58.009529 -7.637180 -9.000000
   vertex 58.009529 -7.637180 -7.000000
  endloop
 endfacet
 facet normal 0.923882 0.382678 -0.000000
  outer loop
   vertex 58.059479 -7.757771 -7.000000
   vertex 58.059479 -7.757771 -9.000000
   vertex 58.009529 -7.637180 -7.000000
  endloop
 endfacet
 facet normal 0.793349 0.608768 0.000000
  outer loop
   vertex 58.138939 -7.861324 -9.000000
   vertex 58.059479 -7.757771 -9.000000
   vertex 58.059479 -7.757771 -7.000000
  endloop
 endfacet
 facet normal 0.793349 0.608768 -0.000000
  outer loop
   vertex 58.138939 -7.861324 -7.000000
   vertex 58.138939 -7.861324 -9.000000
   vertex 58.059479 -7.757771 -7.000000
  endloop
 endfacet
 facet normal 0.608731 0.793377 0.000000
  outer loop
   vertex 58.242500 -7.940783 -9.000000
   vertex 58.138939 -7.861324 -9.000000
   vertex 58.138939 -7.861324 -7.000000
  endloop
 endfacet
 facet normal 0.608731 0.793377 -0.000000
  outer loop
   vertex 58.242500 -7.940783 -7.000000
   vertex 58.242500 -7.940783 -9.000000
   vertex 58.138939 -7.861324 -7.000000
  endloop
 endfacet
 facet normal 0.382690 0.923877 0.000000
  outer loop
   vertex 58.363091 -7.990734 -9.000000
   vertex 58.242500 -7.940783 -9.000000
   vertex 58.242500 -7.940783 -7.000000
  endloop
 endfacet
 facet normal 0.382690 0.923877 -0.000000
  outer loop
   vertex 58.363091 -7.990734 -7.000000
   vertex 58.363091 -7.990734 -9.000000
   vertex 58.242500 -7.940783 -7.000000
  endloop
 endfacet
 facet normal 0.130521 0.991446 0.000000
  outer loop
   vertex 58.492500 -8.007771 -9.000000
   vertex 58.363091 -7.990734 -9.000000
   vertex 58.363091 -7.990734 -7.000000
  endloop
 endfacet
 facet normal 0.130521 0.991446 -0.000000
  outer loop
   vertex 58.492500 -8.007771 -7.000000
   vertex 58.492500 -8.007771 -9.000000
   vertex 58.363091 -7.990734 -7.000000
  endloop
 endfacet
 facet normal -0.130521 0.991446 0.000000
  outer loop
   vertex 58.621910 -7.990734 -9.000000
   vertex 58.492500 -8.007771 -9.000000
   vertex 58.492500 -8.007771 -7.000000
  endloop
 endfacet
 facet normal -0.130521 0.991446 0.000000
  outer loop
   vertex 58.621910 -7.990734 -7.000000
   vertex 58.621910 -7.990734 -9.000000
   vertex 58.492500 -8.007771 -7.000000
  endloop
 endfacet
 facet normal -0.382690 0.923877 0.000000
  outer loop
   vertex 58.742500 -7.940783 -9.000000
   vertex 58.621910 -7.990734 -9.000000
   vertex 58.621910 -7.990734 -7.000000
  endloop
 endfacet
 facet normal -0.382690 0.923877 0.000000
  outer loop
   vertex 58.742500 -7.940783 -7.000000
   vertex 58.742500 -7.940783 -9.000000
   vertex 58.621910 -7.990734 -7.000000
  endloop
 endfacet
 facet normal -0.608774 0.793344 0.000000
  outer loop
   vertex 58.846050 -7.861324 -9.000000
   vertex 58.742500 -7.940783 -9.000000
   vertex 58.742500 -7.940783 -7.000000
  endloop
 endfacet
 facet normal -0.608774 0.793344 0.000000
  outer loop
   vertex 58.846050 -7.861324 -7.000000
   vertex 58.846050 -7.861324 -9.000000
   vertex 58.742500 -7.940783 -7.000000
  endloop
 endfacet
 facet normal -0.793349 0.608768 0.000000
  outer loop
   vertex 58.925510 -7.757771 -9.000000
   vertex 58.846050 -7.861324 -9.000000
   vertex 58.846050 -7.861324 -7.000000
  endloop
 endfacet
 facet normal -0.793349 0.608768 0.000000
  outer loop
   vertex 58.925510 -7.757771 -7.000000
   vertex 58.925510 -7.757771 -9.000000
   vertex 58.846050 -7.861324 -7.000000
  endloop
 endfacet
 facet normal -0.923882 0.382678 0.000000
  outer loop
   vertex 58.975460 -7.637180 -9.000000
   vertex 58.925510 -7.757771 -9.000000
   vertex 58.925510 -7.757771 -7.000000
  endloop
 endfacet
 facet normal -0.923882 0.382678 0.000000
  outer loop
   vertex 58.975460 -7.637180 -7.000000
   vertex 58.975460 -7.637180 -9.000000
   vertex 58.925510 -7.757771 -7.000000
  endloop
 endfacet
 facet normal -0.000000 -0.000000 -1.000000
  outer loop
   vertex 26.641460 -14.407770 -19.000000
   vertex 26.641460 -1.407771 -19.000000
   vertex 28.000000 -1.407771 -19.000000
  endloop
 endfacet
 facet normal 0.000000 -0.000000 -1.000000
  outer loop
   vertex 28.000000 -14.407770 -19.000000
   vertex 26.641460 -14.407770 -19.000000
   vertex 28.000000 -1.407771 -19.000000
  endloop
 endfacet
 facet normal 0.000000 -1.000000 -0.000000
  outer loop
   vertex 28.000000 -14.407770 -9.000000
   vertex 33.200001 -14.407770 -5.000000
   vertex 27.641460 -14.407770 -5.000000
  endloop
 endfacet
 facet normal -0.000000 -1.000000 -0.000000
  outer loop
   vertex 27.418940 -14.407770 -5.025072
   vertex 28.000000 -14.407770 -9.000000
   vertex 27.641460 -14.407770 -5.000000
  endloop
 endfacet
 facet normal -0.000000 -1.000000 -0.000000
  outer loop
   vertex 27.207569 -14.407770 -5.099031
   vertex 28.000000 -14.407770 -9.000000
   vertex 27.418940 -14.407770 -5.025072
  endloop
 endfacet
 facet normal -0.000000 -1.000000 -0.000000
  outer loop
   vertex 26.641460 -14.407770 -6.000000
   vertex 28.000000 -14.407770 -9.000000
   vertex 27.207569 -14.407770 -5.099031
  endloop
 endfacet
 facet normal -0.000000 -1.000000 0.000000
  outer loop
   vertex 27.017969 -14.407770 -5.218169
   vertex 26.641460 -14.407770 -6.000000
   vertex 27.207569 -14.407770 -5.099031
  endloop
 endfacet
 facet normal -0.000000 -1.000000 0.000000
  outer loop
   vertex 26.859631 -14.407770 -5.376510
   vertex 26.641460 -14.407770 -6.000000
   vertex 27.017969 -14.407770 -5.218169
  endloop
 endfacet
 facet normal 0.000000 -1.000000 -0.000000
  outer loop
   vertex 26.641460 -14.407770 -6.000000
   vertex 26.859631 -14.407770 -5.376510
   vertex 26.740490 -14.407770 -5.566116
  endloop
 endfacet
 facet normal -0.000000 -1.000000 0.000000
  outer loop
   vertex 26.666531 -14.407770 -5.777479
   vertex 26.641460 -14.407770 -6.000000
   vertex 26.740490 -14.407770 -5.566116
  endloop
 endfacet
 facet normal 0.000000 -1.000000 0.000000
  outer loop
   vertex 28.000000 -14.407770 -9.000000
   vertex 26.641460 -14.407770 -6.000000
   vertex 26.641460 -14.407770 -19.000000
  endloop
 endfacet
 facet normal 0.000000 -1.000000 0.000000
  outer loop
   vertex 28.000000 -14.407770 -19.000000
   vertex 28.000000 -14.407770 -9.000000
   vertex 26.641460 -14.407770 -19.000000
  endloop
 endfacet
 facet normal 0.000000 -1.000000 0.000000
  outer loop
   vertex 33.200001 -14.407770 -5.000000
   vertex 28.000000 -14.407770 -9.000000
   vertex 33.200001 -14.407770 -9.000000
  endloop
 endfacet
 facet normal -0.991444 -0.130535 0.000000
  outer loop
   vertex 31.192499 -7.507771 -5.000000
   vertex 31.175461 -7.378361 -5.000000
   vertex 31.175461 -7.378361 -7.000000
  endloop
 endfacet
 facet normal -0.991444 -0.130535 -0.000000
  outer loop
   vertex 31.192499 -7.507771 -7.000000
   vertex 31.192499 -7.507771 -5.000000
   vertex 31.175461 -7.378361 -7.000000
  endloop
 endfacet
 facet normal -0.991444 0.130536 0.000000
  outer loop
   vertex 31.175461 -7.637180 -5.000000
   vertex 31.192499 -7.507771 -5.000000
   vertex 31.192499 -7.507771 -7.000000
  endloop
 endfacet
 facet normal -0.991444 0.130536 0.000000
  outer loop
   vertex 31.175461 -7.637180 -7.000000
   vertex 31.175461 -7.637180 -5.000000
   vertex 31.192499 -7.507771 -7.000000
  endloop
 endfacet
 facet normal -0.923877 0.382690 0.000000
  outer loop
   vertex 31.125509 -7.757771 -5.000000
   vertex 31.175461 -7.637180 -5.000000
   vertex 31.175461 -7.637180 -7.000000
  endloop
 endfacet
 facet normal -0.923877 0.382690 0.000000
  outer loop
   vertex 31.125509 -7.757771 -7.000000
   vertex 31.125509 -7.757771 -5.000000
   vertex 31.175461 -7.637180 -7.000000
  endloop
 endfacet
 facet normal -0.793349 0.608768 0.000000
  outer loop
   vertex 31.046049 -7.861324 -5.000000
   vertex 31.125509 -7.757771 -5.000000
   vertex 31.125509 -7.757771 -7.000000
  endloop
 endfacet
 facet normal -0.793349 0.608768 0.000000
  outer loop
   vertex 31.046049 -7.861324 -7.000000
   vertex 31.046049 -7.861324 -5.000000
   vertex 31.125509 -7.757771 -7.000000
  endloop
 endfacet
 facet normal -0.608774 0.793344 0.000000
  outer loop
   vertex 30.942499 -7.940783 -5.000000
   vertex 31.046049 -7.861324 -5.000000
   vertex 31.046049 -7.861324 -7.000000
  endloop
 endfacet
 facet normal -0.608774 0.793344 0.000000
  outer loop
   vertex 30.942499 -7.940783 -7.000000
   vertex 30.942499 -7.940783 -5.000000
   vertex 31.046049 -7.861324 -7.000000
  endloop
 endfacet
 facet normal -0.382695 0.923875 0.000000
  outer loop
   vertex 30.821911 -7.990734 -5.000000
   vertex 30.942499 -7.940783 -5.000000
   vertex 30.942499 -7.940783 -7.000000
  endloop
 endfacet
 facet normal -0.382695 0.923875 0.000000
  outer loop
   vertex 30.821911 -7.990734 -7.000000
   vertex 30.821911 -7.990734 -5.000000
   vertex 30.942499 -7.940783 -7.000000
  endloop
 endfacet
 facet normal -0.130519 0.991446 0.000000
  outer loop
   vertex 30.692499 -8.007771 -5.000000
   vertex 30.821911 -7.990734 -5.000000
   vertex 30.821911 -7.990734 -7.000000
  endloop
 endfacet
 facet normal -0.130519 0.991446 0.000000
  outer loop
   vertex 30.692499 -8.007771 -7.000000
   vertex 30.692499 -8.007771 -5.000000
   vertex 30.821911 -7.990734 -7.000000
  endloop
 endfacet
 facet normal 0.130521 0.991446 -0.000000
  outer loop
   vertex 30.563089 -7.990734 -5.000000
   vertex 30.692499 -8.007771 -5.000000
   vertex 30.692499 -8.007771 -7.000000
  endloop
 endfacet
 facet normal 0.130521 0.991446 0.000000
  outer loop
   vertex 30.563089 -7.990734 -7.000000
   vertex 30.563089 -7.990734 -5.000000
   vertex 30.692499 -8.007771 -7.000000
  endloop
 endfacet
 facet normal 0.382690 0.923877 -0.000000
  outer loop
   vertex 30.442499 -7.940783 -5.000000
   vertex 30.563089 -7.990734 -5.000000
   vertex 30.563089 -7.990734 -7.000000
  endloop
 endfacet
 facet normal 0.382690 0.923877 0.000000
  outer loop
   vertex 30.442499 -7.940783 -7.000000
   vertex 30.442499 -7.940783 -5.000000
   vertex 30.563089 -7.990734 -7.000000
  endloop
 endfacet
 facet normal 0.608738 0.793371 -0.000000
  outer loop
   vertex 30.338940 -7.861324 -5.000000
   vertex 30.442499 -7.940783 -5.000000
   vertex 30.442499 -7.940783 -7.000000
  endloop
 endfacet
 facet normal 0.608738 0.793371 0.000000
  outer loop
   vertex 30.338940 -7.861324 -7.000000
   vertex 30.338940 -7.861324 -5.000000
   vertex 30.442499 -7.940783 -7.000000
  endloop
 endfacet
 facet normal 0.793349 0.608768 -0.000000
  outer loop
   vertex 30.259480 -7.757771 -5.000000
   vertex 30.338940 -7.861324 -5.000000
   vertex 30.338940 -7.861324 -7.000000
  endloop
 endfacet
 facet normal 0.793349 0.608768 0.000000
  outer loop
   vertex 30.259480 -7.757771 -7.000000
   vertex 30.259480 -7.757771 -5.000000
   vertex 30.338940 -7.861324 -7.000000
  endloop
 endfacet
 facet normal 0.923882 0.382678 -0.000000
  outer loop
   vertex 30.209530 -7.637180 -5.000000
   vertex 30.259480 -7.757771 -5.000000
   vertex 30.259480 -7.757771 -7.000000
  endloop
 endfacet
 facet normal 0.923882 0.382678 0.000000
  outer loop
   vertex 30.209530 -7.637180 -7.000000
   vertex 30.209530 -7.637180 -5.000000
   vertex 30.259480 -7.757771 -7.000000
  endloop
 endfacet
 facet normal 0.991451 0.130479 -0.000000
  outer loop
   vertex 30.192499 -7.507771 -5.000000
   vertex 30.209530 -7.637180 -5.000000
   vertex 30.209530 -7.637180 -7.000000
  endloop
 endfacet
 facet normal 0.991451 0.130479 0.000000
  outer loop
   vertex 30.192499 -7.507771 -7.000000
   vertex 30.192499 -7.507771 -5.000000
   vertex 30.209530 -7.637180 -7.000000
  endloop
 endfacet
 facet normal 0.991451 -0.130478 0.000000
  outer loop
   vertex 30.209530 -7.378361 -5.000000
   vertex 30.192499 -7.507771 -5.000000
   vertex 30.192499 -7.507771 -7.000000
  endloop
 endfacet
 facet normal 0.991451 -0.130478 0.000000
  outer loop
   vertex 30.209530 -7.378361 -7.000000
   vertex 30.209530 -7.378361 -5.000000
   vertex 30.192499 -7.507771 -7.000000
  endloop
 endfacet
 facet normal 0.923881 -0.382680 0.000000
  outer loop
   vertex 30.259480 -7.257771 -5.000000
   vertex 30.209530 -7.378361 -5.000000
   vertex 30.209530 -7.378361 -7.000000
  endloop
 endfacet
 facet normal 0.923881 -0.382680 0.000000
  outer loop
   vertex 30.259480 -7.257771 -7.000000
   vertex 30.259480 -7.257771 -5.000000
   vertex 30.209530 -7.378361 -7.000000
  endloop
 endfacet
 facet normal 0.793353 -0.608762 0.000000
  outer loop
   vertex 30.338940 -7.154217 -5.000000
   vertex 30.259480 -7.257771 -5.000000
   vertex 30.259480 -7.257771 -7.000000
  endloop
 endfacet
 facet normal 0.793353 -0.608762 0.000000
  outer loop
   vertex 30.338940 -7.154217 -7.000000
   vertex 30.338940 -7.154217 -5.000000
   vertex 30.259480 -7.257771 -7.000000
  endloop
 endfacet
 facet normal 0.608736 -0.793373 0.000000
  outer loop
   vertex 30.442499 -7.074758 -5.000000
   vertex 30.338940 -7.154217 -5.000000
   vertex 30.338940 -7.154217 -7.000000
  endloop
 endfacet
 facet normal 0.608736 -0.793373 0.000000
  outer loop
   vertex 30.442499 -7.074758 -7.000000
   vertex 30.442499 -7.074758 -5.000000
   vertex 30.338940 -7.154217 -7.000000
  endloop
 endfacet
 facet normal 0.382684 -0.923879 0.000000
  outer loop
   vertex 30.563089 -7.024808 -5.000000
   vertex 30.442499 -7.074758 -5.000000
   vertex 30.442499 -7.074758 -7.000000
  endloop
 endfacet
 facet normal 0.382684 -0.923879 0.000000
  outer loop
   vertex 30.563089 -7.024808 -7.000000
   vertex 30.563089 -7.024808 -5.000000
   vertex 30.442499 -7.074758 -7.000000
  endloop
 endfacet
 facet normal 0.130525 -0.991445 0.000000
  outer loop
   vertex 30.692499 -7.007771 -5.000000
   vertex 30.563089 -7.024808 -5.000000
   vertex 30.563089 -7.024808 -7.000000
  endloop
 endfacet
 facet normal 0.130525 -0.991445 0.000000
  outer loop
   vertex 30.692499 -7.007771 -7.000000
   vertex 30.692499 -7.007771 -5.000000
   vertex 30.563089 -7.024808 -7.000000
  endloop
 endfacet
 facet normal -0.130523 -0.991445 0.000000
  outer loop
   vertex 30.821911 -7.024808 -5.000000
   vertex 30.692499 -7.007771 -5.000000
   vertex 30.692499 -7.007771 -7.000000
  endloop
 endfacet
 facet normal -0.130523 -0.991445 -0.000000
  outer loop
   vertex 30.821911 -7.024808 -7.000000
   vertex 30.821911 -7.024808 -5.000000
   vertex 30.692499 -7.007771 -7.000000
  endloop
 endfacet
 facet normal -0.382689 -0.923877 0.000000
  outer loop
   vertex 30.942499 -7.074758 -5.000000
   vertex 30.821911 -7.024808 -5.000000
   vertex 30.821911 -7.024808 -7.000000
  endloop
 endfacet
 facet normal -0.382689 -0.923877 -0.000000
  outer loop
   vertex 30.942499 -7.074758 -7.000000
   vertex 30.942499 -7.074758 -5.000000
   vertex 30.821911 -7.024808 -7.000000
  endloop
 endfacet
 facet normal -0.608771 -0.793346 0.000000
  outer loop
   vertex 31.046049 -7.154217 -5.000000
   vertex 30.942499 -7.074758 -5.000000
   vertex 30.942499 -7.074758 -7.000000
  endloop
 endfacet
 facet normal -0.608771 -0.793346 -0.000000
  outer loop
   vertex 31.046049 -7.154217 -7.000000
   vertex 31.046049 -7.154217 -5.000000
   vertex 30.942499 -7.074758 -7.000000
  endloop
 endfacet
 facet normal -0.793353 -0.608762 0.000000
  outer loop
   vertex 31.125509 -7.257771 -5.000000
   vertex 31.046049 -7.154217 -5.000000
   vertex 31.046049 -7.154217 -7.000000
  endloop
 endfacet
 facet normal -0.793353 -0.608762 -0.000000
  outer loop
   vertex 31.125509 -7.257771 -7.000000
   vertex 31.125509 -7.257771 -5.000000
   vertex 31.046049 -7.154217 -7.000000
  endloop
 endfacet
 facet normal -0.923876 -0.382693 0.000000
  outer loop
   vertex 31.175461 -7.378361 -5.000000
   vertex 31.125509 -7.257771 -5.000000
   vertex 31.125509 -7.257771 -7.000000
  endloop
 endfacet
 facet normal -0.923876 -0.382693 -0.000000
  outer loop
   vertex 31.175461 -7.378361 -7.000000
   vertex 31.175461 -7.378361 -5.000000
   vertex 31.125509 -7.257771 -7.000000
  endloop
 endfacet
 facet normal -0.991444 0.130536 0.000000
  outer loop
   vertex 31.192499 -7.507771 -9.000000
   vertex 31.175461 -7.637180 -9.000000
   vertex 31.175461 -7.637180 -7.000000
  endloop
 endfacet
 facet normal -0.991444 0.130536 0.000000
  outer loop
   vertex 31.192499 -7.507771 -7.000000
   vertex 31.192499 -7.507771 -9.000000
   vertex 31.175461 -7.637180 -7.000000
  endloop
 endfacet
 facet normal -0.991444 -0.130535 -0.000000
  outer loop
   vertex 31.175461 -7.378361 -9.000000
   vertex 31.192499 -7.507771 -9.000000
   vertex 31.192499 -7.507771 -7.000000
  endloop
 endfacet
 facet normal -0.991444 -0.130535 0.000000
  outer loop
   vertex 31.175461 -7.378361 -7.000000
   vertex 31.175461 -7.378361 -9.000000
   vertex 31.192499 -7.507771 -7.000000
  endloop
 endfacet
 facet normal -0.923876 -0.382693 -0.000000
  outer loop
   vertex 31.125509 -7.257771 -9.000000
   vertex 31.175461 -7.378361 -9.000000
   vertex 31.175461 -7.378361 -7.000000
  endloop
 endfacet
 facet normal -0.923876 -0.382693 0.000000
  outer loop
   vertex 31.125509 -7.257771 -7.000000
   vertex 31.125509 -7.257771 -9.000000
   vertex 31.175461 -7.378361 -7.000000
  endloop
 endfacet
 facet normal -0.793353 -0.608762 -0.000000
  outer loop
   vertex 31.046049 -7.154217 -9.000000
   vertex 31.125509 -7.257771 -9.000000
   vertex 31.125509 -7.257771 -7.000000
  endloop
 endfacet
 facet normal -0.793353 -0.608762 0.000000
  outer loop
   vertex 31.046049 -7.154217 -7.000000
   vertex 31.046049 -7.154217 -9.000000
   vertex 31.125509 -7.257771 -7.000000
  endloop
 endfacet
 facet normal -0.608771 -0.793346 -0.000000
  outer loop
   vertex 30.942499 -7.074758 -9.000000
   vertex 31.046049 -7.154217 -9.000000
   vertex 31.046049 -7.154217 -7.000000
  endloop
 endfacet
 facet normal -0.608771 -0.793346 0.000000
  outer loop
   vertex 30.942499 -7.074758 -7.000000
   vertex 30.942499 -7.074758 -9.000000
   vertex 31.046049 -7.154217 -7.000000
  endloop
 endfacet
 facet normal -0.382689 -0.923877 -0.000000
  outer loop
   vertex 30.821911 -7.024808 -9.000000
   vertex 30.942499 -7.074758 -9.000000
   vertex 30.942499 -7.074758 -7.000000
  endloop
 endfacet
 facet normal -0.382689 -0.923877 0.000000
  outer loop
   vertex 30.821911 -7.024808 -7.000000
   vertex 30.821911 -7.024808 -9.000000
   vertex 30.942499 -7.074758 -7.000000
  endloop
 endfacet
 facet normal -0.130523 -0.991445 -0.000000
  outer loop
   vertex 30.692499 -7.007771 -9.000000
   vertex 30.821911 -7.024808 -9.000000
   vertex 30.821911 -7.024808 -7.000000
  endloop
 endfacet
 facet normal -0.130523 -0.991445 0.000000
  outer loop
   vertex 30.692499 -7.007771 -7.000000
   vertex 30.692499 -7.007771 -9.000000
   vertex 30.821911 -7.024808 -7.000000
  endloop
 endfacet
 facet normal 0.130525 -0.991445 0.000000
  outer loop
   vertex 30.563089 -7.024808 -9.000000
   vertex 30.692499 -7.007771 -9.000000
   vertex 30.692499 -7.007771 -7.000000
  endloop
 endfacet
 facet normal 0.130525 -0.991445 0.000000
  outer loop
   vertex 30.563089 -7.024808 -7.000000
   vertex 30.563089 -7.024808 -9.000000
   vertex 30.692499 -7.007771 -7.000000
  endloop
 endfacet
 facet normal 0.382684 -0.923879 0.000000
  outer loop
   vertex 30.442499 -7.074758 -9.000000
   vertex 30.563089 -7.024808 -9.000000
   vertex 30.563089 -7.024808 -7.000000
  endloop
 endfacet
 facet normal 0.382684 -0.923879 0.000000
  outer loop
   vertex 30.442499 -7.074758 -7.000000
   vertex 30.442499 -7.074758 -9.000000
   vertex 30.563089 -7.024808 -7.000000
  endloop
 endfacet
 facet normal 0.608736 -0.793373 0.000000
  outer loop
   vertex 30.338940 -7.154217 -9.000000
   vertex 30.442499 -7.074758 -9.000000
   vertex 30.442499 -7.074758 -7.000000
  endloop
 endfacet
 facet normal 0.608736 -0.793373 0.000000
  outer loop
   vertex 30.338940 -7.154217 -7.000000
   vertex 30.338940 -7.154217 -9.000000
   vertex 30.442499 -7.074758 -7.000000
  endloop
 endfacet
 facet normal 0.793353 -0.608762 0.000000
  outer loop
   vertex 30.259480 -7.257771 -9.000000
   vertex 30.338940 -7.154217 -9.000000
   vertex 30.338940 -7.154217 -7.000000
  endloop
 endfacet
 facet normal 0.793353 -0.608762 0.000000
  outer loop
   vertex 30.259480 -7.257771 -7.000000
   vertex 30.259480 -7.257771 -9.000000
   vertex 30.338940 -7.154217 -7.000000
  endloop
 endfacet
 facet normal 0.923881 -0.382680 0.000000
  outer loop
   vertex 30.209530 -7.378361 -9.000000
   vertex 30.259480 -7.257771 -9.000000
   vertex 30.259480 -7.257771 -7.000000
  endloop
 endfacet
 facet normal 0.923881 -0.382680 0.000000
  outer loop
   vertex 30.209530 -7.378361 -7.000000
   vertex 30.209530 -7.378361 -9.000000
   vertex 30.259480 -7.257771 -7.000000
  endloop
 endfacet
 facet normal 0.991451 -0.130478 0.000000
  outer loop
   vertex 30.192499 -7.507771 -9.000000
   vertex 30.209530 -7.378361 -9.000000
   vertex 30.209530 -7.378361 -7.000000
  endloop
 endfacet
 facet normal 0.991451 -0.130478 0.000000
  outer loop
   vertex 30.192499 -7.507771 -7.000000
   vertex 30.192499 -7.507771 -9.000000
   vertex 30.209530 -7.378361 -7.000000
  endloop
 endfacet
 facet normal 0.991451 0.130479 0.000000
  outer loop
   vertex 30.209530 -7.637180 -9.000000
   vertex 30.192499 -7.507771 -9.000000
   vertex 30.192499 -7.507771 -7.000000
  endloop
 endfacet
 facet normal 0.991451 0.130479 -0.000000
  outer loop
   vertex 30.209530 -7.637180 -7.000000
   vertex 30.209530 -7.637180 -9.000000
   vertex 30.192499 -7.507771 -7.000000
  endloop
 endfacet
 facet normal 0.923882 0.382678 0.000000
  outer loop
   vertex 30.259480 -7.757771 -9.000000
   vertex 30.209530 -7.637180 -9.000000
   vertex 30.209530 -7.637180 -7.000000
  endloop
 endfacet
 facet normal 0.923882 0.382678 -0.000000
  outer loop
   vertex 30.259480 -7.757771 -7.000000
   vertex 30.259480 -7.757771 -9.000000
   vertex 30.209530 -7.637180 -7.000000
  endloop
 endfacet
 facet normal 0.793349 0.608768 0.000000
  outer loop
   vertex 30.338940 -7.861324 -9.000000
   vertex 30.259480 -7.757771 -9.000000
   vertex 30.259480 -7.757771 -7.000000
  endloop
 endfacet
 facet normal 0.793349 0.608768 -0.000000
  outer loop
   vertex 30.338940 -7.861324 -7.000000
   vertex 30.338940 -7.861324 -9.000000
   vertex 30.259480 -7.757771 -7.000000
  endloop
 endfacet
 facet normal 0.608738 0.793371 0.000000
  outer loop
   vertex 30.442499 -7.940783 -9.000000
   vertex 30.338940 -7.861324 -9.000000
   vertex 30.338940 -7.861324 -7.000000
  endloop
 endfacet
 facet normal 0.608738 0.793371 -0.000000
  outer loop
   vertex 30.442499 -7.940783 -7.000000
   vertex 30.442499 -7.940783 -9.000000
   vertex 30.338940 -7.861324 -7.000000
  endloop
 endfacet
 facet normal 0.382690 0.923877 0.000000
  outer loop
   vertex 30.563089 -7.990734 -9.000000
   vertex 30.442499 -7.940783 -9.000000
   vertex 30.442499 -7.940783 -7.000000
  endloop
 endfacet
 facet normal 0.382690 0.923877 -0.000000
  outer loop
   vertex 30.563089 -7.990734 -7.000000
   vertex 30.563089 -7.990734 -9.000000
   vertex 30.442499 -7.940783 -7.000000
  endloop
 endfacet
 facet normal 0.130521 0.991446 0.000000
  outer loop
   vertex 30.692499 -8.007771 -9.000000
   vertex 30.563089 -7.990734 -9.000000
   vertex 30.563089 -7.990734 -7.000000
  endloop
 endfacet
 facet normal 0.130521 0.991446 -0.000000
  outer loop
   vertex 30.692499 -8.007771 -7.000000
   vertex 30.692499 -8.007771 -9.000000
   vertex 30.563089 -7.990734 -7.000000
  endloop
 endfacet
 facet normal -0.130519 0.991446 0.000000
  outer loop
   vertex 30.821911 -7.990734 -9.000000
   vertex 30.692499 -8.007771 -9.000000
   vertex 30.692499 -8.007771 -7.000000
  endloop
 endfacet
 facet normal -0.130519 0.991446 0.000000
  outer loop
   vertex 30.821911 -7.990734 -7.000000
   vertex 30.821911 -7.990734 -9.000000
   vertex 30.692499 -8.007771 -7.000000
  endloop
 endfacet
 facet normal -0.382695 0.923875 0.000000
  outer loop
   vertex 30.942499 -7.940783 -9.000000
   vertex 30.821911 -7.990734 -9.000000
   vertex 30.821911 -7.990734 -7.000000
  endloop
 endfacet
 facet normal -0.382695 0.923875 0.000000
  outer loop
   vertex 30.942499 -7.940783 -7.000000
   vertex 30.942499 -7.940783 -9.000000
   vertex 30.821911 -7.990734 -7.000000
  endloop
 endfacet
 facet normal -0.608774 0.793344 0.000000
  outer loop
   vertex 31.046049 -7.861324 -9.000000
   vertex 30.942499 -7.940783 -9.000000
   vertex 30.942499 -7.940783 -7.000000
  endloop
 endfacet
 facet normal -0.608774 0.793344 0.000000
  outer loop
   vertex 31.046049 -7.861324 -7.000000
   vertex 31.046049 -7.861324 -9.000000
   vertex 30.942499 -7.940783 -7.000000
  endloop
 endfacet
 facet normal -0.793349 0.608768 0.000000
  outer loop
   vertex 31.125509 -7.757771 -9.000000
   vertex 31.046049 -7.861324 -9.000000
   vertex 31.046049 -7.861324 -7.000000
  endloop
 endfacet
 facet normal -0.793349 0.608768 0.000000
  outer loop
   vertex 31.125509 -7.757771 -7.000000
   vertex 31.125509 -7.757771 -9.000000
   vertex 31.046049 -7.861324 -7.000000
  endloop
 endfacet
 facet normal -0.923877 0.382690 0.000000
  outer loop
   vertex 31.175461 -7.637180 -9.000000
   vertex 31.125509 -7.757771 -9.000000
   vertex 31.125509 -7.757771 -7.000000
  endloop
 endfacet
 facet normal -0.923877 0.382690 0.000000
  outer loop
   vertex 31.175461 -7.637180 -7.000000
   vertex 31.175461 -7.637180 -9.000000
   vertex 31.125509 -7.757771 -7.000000
  endloop
 endfacet
 facet normal 1.000000 0.000000 0.000000
  outer loop
   vertex 33.200001 -14.407770 -9.000000
   vertex 33.200001 -1.407771 -9.000000
   vertex 33.200001 -1.407771 -5.000000
  endloop
 endfacet
 facet normal 1.000000 0.000000 -0.000000
  outer loop
   vertex 33.200001 -14.407770 -5.000000
   vertex 33.200001 -14.407770 -9.000000
   vertex 33.200001 -1.407771 -5.000000
  endloop
 endfacet
 facet normal 0.000000 0.000000 -1.000000
  outer loop
   vertex 28.000000 -1.407771 -9.000000
   vertex 33.200001 -1.407771 -9.000000
   vertex 30.692499 -7.007771 -9.000000
  endloop
 endfacet
 facet normal -0.000000 -0.000000 -1.000000
  outer loop
   vertex 30.563089 -7.024808 -9.000000
   vertex 28.000000 -1.407771 -9.000000
   vertex 30.692499 -7.007771 -9.000000
  endloop
 endfacet
 facet normal -0.000000 -0.000000 -1.000000
  outer loop
   vertex 30.442499 -7.074758 -9.000000
   vertex 28.000000 -1.407771 -9.000000
   vertex 30.563089 -7.024808 -9.000000
  endloop
 endfacet
 facet normal 0.000000 0.000000 -1.000000
  outer loop
   vertex 33.200001 -1.407771 -9.000000
   vertex 33.200001 -14.407770 -9.000000
   vertex 31.192499 -7.507771 -9.000000
  endloop
 endfacet
 facet normal -0.000000 0.000000 -1.000000
  outer loop
   vertex 31.175461 -7.378361 -9.000000
   vertex 33.200001 -1.407771 -9.000000
   vertex 31.192499 -7.507771 -9.000000
  endloop
 endfacet
 facet normal -0.000000 0.000000 -1.000000
  outer loop
   vertex 31.125509 -7.257771 -9.000000
   vertex 33.200001 -1.407771 -9.000000
   vertex 31.175461 -7.378361 -9.000000
  endloop
 endfacet
 facet normal 0.000000 -0.000000 -1.000000
  outer loop
   vertex 33.200001 -14.407770 -9.000000
   vertex 28.000000 -14.407770 -9.000000
   vertex 30.692499 -8.007771 -9.000000
  endloop
 endfacet
 facet normal 0.000000 0.000000 -1.000000
  outer loop
   vertex 30.821911 -7.990734 -9.000000
   vertex 33.200001 -14.407770 -9.000000
   vertex 30.692499 -8.007771 -9.000000
  endloop
 endfacet
 facet normal 0.000000 0.000000 -1.000000
  outer loop
   vertex 30.942499 -7.940783 -9.000000
   vertex 33.200001 -14.407770 -9.000000
   vertex 30.821911 -7.990734 -9.000000
  endloop
 endfacet
 facet normal -0.000000 -0.000000 -1.000000
  outer loop
   vertex 28.000000 -14.407770 -9.000000
   vertex 28.000000 -1.407771 -9.000000
   vertex 30.192499 -7.507771 -9.000000
  endloop
 endfacet
 facet normal 0.000000 -0.000000 -1.000000
  outer loop
   vertex 30.209530 -7.637180 -9.000000
   vertex 28.000000 -14.407770 -9.000000
   vertex 30.192499 -7.507771 -9.000000
  endloop
 endfacet
 facet normal 0.000000 -0.000000 -1.000000
  outer loop
   vertex 30.259480 -7.757771 -9.000000
   vertex 28.000000 -14.407770 -9.000000
   vertex 30.209530 -7.637180 -9.000000
  endloop
 endfacet
 facet normal 0.000000 0.000000 -1.000000
  outer loop
   vertex 33.200001 -1.407771 -9.000000
   vertex 31.125509 -7.257771 -9.000000
   vertex 31.046049 -7.154217 -9.000000
  endloop
 endfacet
 facet normal -0.000000 0.000000 -1.000000
  outer loop
   vertex 30.942499 -7.074758 -9.000000
   vertex 33.200001 -1.407771 -9.000000
   vertex 31.046049 -7.154217 -9.000000
  endloop
 endfacet
 facet normal -0.000000 0.000000 -1.000000
  outer loop
   vertex 30.821911 -7.024808 -9.000000
   vertex 33.200001 -1.407771 -9.000000
   vertex 30.942499 -7.074758 -9.000000
  endloop
 endfacet
 facet normal 0.000000 0.000000 -1.000000
  outer loop
   vertex 33.200001 -1.407771 -9.000000
   vertex 30.821911 -7.024808 -9.000000
   vertex 30.692499 -7.007771 -9.000000
  endloop
 endfacet
 facet normal 0.000000 0.000000 -1.000000
  outer loop
   vertex 28.000000 -1.407771 -9.000000
   vertex 30.442499 -7.074758 -9.000000
   vertex 30.338940 -7.154217 -9.000000
  endloop
 endfacet
 facet normal -0.000000 -0.000000 -1.000000
  outer loop
   vertex 30.259480 -7.257771 -9.000000
   vertex 28.000000 -1.407771 -9.000000
   vertex 30.338940 -7.154217 -9.000000
  endloop
 endfacet
 facet normal -0.000000 -0.000000 -1.000000
  outer loop
   vertex 30.209530 -7.378361 -9.000000
   vertex 28.000000 -1.407771 -9.000000
   vertex 30.259480 -7.257771 -9.000000
  endloop
 endfacet
 facet normal 0.000000 0.000000 -1.000000
  outer loop
   vertex 28.000000 -1.407771 -9.000000
   vertex 30.209530 -7.378361 -9.000000
   vertex 30.192499 -7.507771 -9.000000
  endloop
 endfacet
 facet normal -0.000000 0.000000 -1.000000
  outer loop
   vertex 28.000000 -14.407770 -9.000000
   vertex 30.259480 -7.757771 -9.000000
   vertex 30.338940 -7.861324 -9.000000
  endloop
 endfacet
 facet normal 0.000000 -0.000000 -1.000000
  outer loop
   vertex 30.442499 -7.940783 -9.000000
   vertex 28.000000 -14.407770 -9.000000
   vertex 30.338940 -7.861324 -9.000000
  endloop
 endfacet
 facet normal 0.000000 -0.000000 -1.000000
  outer loop
   vertex 30.563089 -7.990734 -9.000000
   vertex 28.000000 -14.407770 -9.000000
   vertex 30.442499 -7.940783 -9.000000
  endloop
 endfacet
 facet normal -0.000000 0.000000 -1.000000
  outer loop
   vertex 28.000000 -14.407770 -9.000000
   vertex 30.563089 -7.990734 -9.000000
   vertex 30.692499 -8.007771 -9.000000
  endloop
 endfacet
 facet normal 0.000000 -0.000000 -1.000000
  outer loop
   vertex 33.200001 -14.407770 -9.000000
   vertex 30.942499 -7.940783 -9.000000
   vertex 31.046049 -7.861324 -9.000000
  endloop
 endfacet
 facet normal 0.000000 0.000000 -1.000000
  outer loop
   vertex 31.125509 -7.757771 -9.000000
   vertex 33.200001 -14.407770 -9.000000
   vertex 31.046049 -7.861324 -9.000000
  endloop
 endfacet
 facet normal 0.000000 0.000000 -1.000000
  outer loop
   vertex 31.175461 -7.637180 -9.000000
   vertex 33.200001 -14.407770 -9.000000
   vertex 31.125509 -7.757771 -9.000000
  endloop
 endfacet
 facet normal 0.000000 -0.000000 -1.000000
  outer loop
   vertex 33.200001 -14.407770 -9.000000
   vertex 31.175461 -7.637180 -9.000000
   vertex 31.192499 -7.507771 -9.000000
  endloop
 endfacet
 facet normal 1.000000 0.000000 0.000000
  outer loop
   vertex 28.000000 -14.407770 -19.000000
   vertex 28.000000 -1.407771 -19.000000
   vertex 28.000000 -1.407771 -9.000000
  endloop
 endfacet
 facet normal 1.000000 0.000000 -0.000000
  outer loop
   vertex 28.000000 -14.407770 -9.000000
   vertex 28.000000 -14.407770 -19.000000
   vertex 28.000000 -1.407771 -9.000000
  endloop
 endfacet
endsolid T_MESH
